<?xml version="1.0" encoding="UTF-8"?>
<!DOCTYPE svg PUBLIC "-//W3C//DTD SVG 1.1//EN" "http://www.w3.org/Graphics/SVG/1.1/DTD/svg11.dtd">
<svg xmlns="http://www.w3.org/2000/svg" version="1.1" width="1024px" height="1024px" style="shape-rendering:geometricPrecision; text-rendering:geometricPrecision; image-rendering:optimizeQuality; fill-rule:evenodd; clip-rule:evenodd" xmlns:xlink="http://www.w3.org/1999/xlink">
<g><path style="opacity:1" fill="#fed689" d="M -0.5,-0.5 C 340.833,-0.5 682.167,-0.5 1023.5,-0.5C 1023.5,186.833 1023.5,374.167 1023.5,561.5C 944.095,468.101 865.095,374.435 786.5,280.5C 786.167,279.833 785.833,279.167 785.5,278.5C 784.987,274.447 784.154,270.447 783,266.5C 782.617,265.944 782.117,265.611 781.5,265.5C 781.167,264.833 780.833,264.167 780.5,263.5C 779.965,259.542 778.298,256.208 775.5,253.5C 766.388,240.228 754.388,230.395 739.5,224C 729.889,221.048 720.222,218.548 710.5,216.5C 706.03,215.514 701.363,215.181 696.5,215.5C 696.5,213.5 696.5,211.5 696.5,209.5C 696.993,207.194 697.326,204.861 697.5,202.5C 697.335,198.818 697.501,195.152 698,191.5C 700.421,187.149 701.588,182.483 701.5,177.5C 703.58,172.145 704.58,166.478 704.5,160.5C 705.631,147.875 706.964,135.375 708.5,123C 708.969,117.165 707.969,111.665 705.5,106.5C 705.741,104.102 705.074,102.102 703.5,100.5C 695.898,86.0696 684.231,76.5696 668.5,72C 653.476,68.3121 639.476,70.6454 626.5,79C 617.637,84.2648 609.304,90.2648 601.5,97C 597.407,98.7939 593.574,100.961 590,103.5C 577.973,88.7879 566.64,73.4546 556,57.5C 545.845,46.5052 533.345,40.5052 518.5,39.5C 518.389,38.8826 518.056,38.3826 517.5,38C 514.833,37.8333 512.167,37.6667 509.5,37.5C 505.223,37.3367 501.223,38.0033 497.5,39.5C 494.99,39.0535 492.99,39.7202 491.5,41.5C 481.847,44.419 473.681,49.7523 467,57.5C 456.555,72.9451 445.721,88.1117 434.5,103C 433.5,103.667 432.5,103.667 431.5,103C 428.014,101.004 424.681,98.8373 421.5,96.5C 421.027,95.0937 420.027,94.427 418.5,94.5C 408.838,87.6669 398.838,81.3336 388.5,75.5C 386.967,73.7549 384.967,72.7549 382.5,72.5C 382.167,72.5 381.833,72.5 381.5,72.5C 380.848,71.2749 379.681,70.6083 378,70.5C 370.137,69.121 362.303,69.2877 354.5,71C 353.944,71.3826 353.611,71.8826 353.5,72.5C 338.237,77.0996 326.903,86.4329 319.5,100.5C 317.926,102.102 317.259,104.102 317.5,106.5C 316.89,107.391 316.557,108.391 316.5,109.5C 315.732,110.263 315.232,111.263 315,112.5C 314.179,119.679 314.345,126.679 315.5,133.5C 316.74,142.427 317.74,151.427 318.5,160.5C 318.42,166.478 319.42,172.145 321.5,177.5C 321.766,182.373 322.932,187.04 325,191.5C 325.591,197.498 326.091,203.498 326.5,209.5C 326.5,211.5 326.5,213.5 326.5,215.5C 320.642,215.178 314.975,215.511 309.5,216.5C 309.389,217.117 309.056,217.617 308.5,218C 294.642,218.457 281.975,222.29 270.5,229.5C 268.447,229.402 266.78,230.069 265.5,231.5C 256.437,237.897 249.104,245.897 243.5,255.5C 241.896,256.287 241.229,257.62 241.5,259.5C 239.852,263.44 238.518,267.44 237.5,271.5C 235.272,275.076 234.272,279.076 234.5,283.5C 234.5,283.833 234.5,284.167 234.5,284.5C 232.989,287.544 232.322,290.878 232.5,294.5C 231.334,481.666 231.167,669 232,856.5C 232.175,861.019 232.675,865.353 233.5,869.5C 233.275,875.765 234.609,881.432 237.5,886.5C 242.352,897.951 249.019,908.284 257.5,917.5C 258.29,918.401 259.29,919.068 260.5,919.5C 263.415,920.744 266.082,922.411 268.5,924.5C 268.709,925.922 269.209,927.255 270,928.5C 297.111,959.767 323.611,991.433 349.5,1023.5C 232.833,1023.5 116.167,1023.5 -0.5,1023.5C -0.5,682.167 -0.5,340.833 -0.5,-0.5 Z"/></g>
<g><path style="opacity:1" fill="#b8935f" d="M 518.5,39.5 C 512.5,39.5 506.5,39.5 500.5,39.5C 499.5,39.5 498.5,39.5 497.5,39.5C 501.223,38.0033 505.223,37.3367 509.5,37.5C 512.167,37.6667 514.833,37.8333 517.5,38C 518.056,38.3826 518.389,38.8826 518.5,39.5 Z"/></g>
<g><path style="opacity:1" fill="#866341" d="M 497.5,39.5 C 498.5,39.5 499.5,39.5 500.5,39.5C 497.655,40.3438 494.655,41.0104 491.5,41.5C 492.99,39.7202 494.99,39.0535 497.5,39.5 Z"/></g>
<g><path style="opacity:1" fill="#412118" d="M 500.5,39.5 C 506.5,39.5 512.5,39.5 518.5,39.5C 533.345,40.5052 545.845,46.5052 556,57.5C 566.64,73.4546 577.973,88.7879 590,103.5C 593.574,100.961 597.407,98.7939 601.5,97C 609.304,90.2648 617.637,84.2648 626.5,79C 639.476,70.6454 653.476,68.3121 668.5,72C 684.231,76.5696 695.898,86.0696 703.5,100.5C 703.259,102.898 703.926,104.898 705.5,106.5C 707.969,111.665 708.969,117.165 708.5,123C 706.964,135.375 705.631,147.875 704.5,160.5C 702.678,165.893 701.678,171.559 701.5,177.5C 701.588,182.483 700.421,187.149 698,191.5C 697.501,195.152 697.335,198.818 697.5,202.5C 695.837,204.438 695.171,206.772 695.5,209.5C 695.5,211.833 695.5,214.167 695.5,216.5C 700.5,216.5 705.5,216.5 710.5,216.5C 720.222,218.548 729.889,221.048 739.5,224C 754.388,230.395 766.388,240.228 775.5,253.5C 776.679,257.098 778.346,260.431 780.5,263.5C 780.833,264.167 781.167,264.833 781.5,265.5C 782.344,269.874 783.344,274.207 784.5,278.5C 783.878,285.164 783.712,291.831 784,298.5C 784.333,295.167 784.667,291.833 785,288.5C 784.837,342.509 785.67,396.176 787.5,449.5C 812.625,456.126 828.125,472.126 834,497.5C 834.667,531.833 834.667,566.167 834,600.5C 829.174,624.823 815.007,640.823 791.5,648.5C 789.856,648.286 788.356,648.62 787,649.5C 786.5,721.499 786.333,793.499 786.5,865.5C 784.896,872.402 783.563,879.402 782.5,886.5C 768.434,918.198 744.101,935.031 709.5,937C 575.167,937.667 440.833,937.667 306.5,937C 300.614,935.513 294.614,934.513 288.5,934C 281.538,931.411 274.871,928.244 268.5,924.5C 266.082,922.411 263.415,920.744 260.5,919.5C 260.179,917.952 259.179,917.285 257.5,917.5C 249.019,908.284 242.352,897.951 237.5,886.5C 236.669,881.513 235.836,876.513 235,871.5C 234.722,870.584 234.222,869.918 233.5,869.5C 233.5,863.833 233.5,858.167 233.5,852.5C 233.173,663.149 233.506,473.816 234.5,284.5C 234.5,284.167 234.5,283.833 234.5,283.5C 236.468,279.983 237.468,275.983 237.5,271.5C 238.518,267.44 239.852,263.44 241.5,259.5C 243.104,258.713 243.771,257.38 243.5,255.5C 249.104,245.897 256.437,237.897 265.5,231.5C 267.553,231.598 269.22,230.931 270.5,229.5C 281.975,222.29 294.642,218.457 308.5,218C 309.056,217.617 309.389,217.117 309.5,216.5C 315.5,216.5 321.5,216.5 327.5,216.5C 327.802,213.941 327.468,211.607 326.5,209.5C 326.091,203.498 325.591,197.498 325,191.5C 322.932,187.04 321.766,182.373 321.5,177.5C 321.322,171.559 320.322,165.893 318.5,160.5C 317.74,151.427 316.74,142.427 315.5,133.5C 315.302,125.466 315.635,117.466 316.5,109.5C 316.557,108.391 316.89,107.391 317.5,106.5C 319.074,104.898 319.741,102.898 319.5,100.5C 326.903,86.4329 338.237,77.0996 353.5,72.5C 362.839,69.893 372.172,69.893 381.5,72.5C 381.833,72.5 382.167,72.5 382.5,72.5C 384.033,74.2451 386.033,75.2451 388.5,75.5C 398.838,81.3336 408.838,87.6669 418.5,94.5C 418.973,95.9063 419.973,96.573 421.5,96.5C 424.681,98.8373 428.014,101.004 431.5,103C 432.5,103.667 433.5,103.667 434.5,103C 445.721,88.1117 456.555,72.9451 467,57.5C 473.681,49.7523 481.847,44.419 491.5,41.5C 494.655,41.0104 497.655,40.3438 500.5,39.5 Z"/></g>
<g><path style="opacity:1" fill="#cda76c" d="M 381.5,72.5 C 372.172,69.893 362.839,69.893 353.5,72.5C 353.611,71.8826 353.944,71.3826 354.5,71C 362.303,69.2877 370.137,69.121 378,70.5C 379.681,70.6083 380.848,71.2749 381.5,72.5 Z"/></g>
<g><path style="opacity:1" fill="#97744c" d="M 382.5,72.5 C 384.967,72.7549 386.967,73.7549 388.5,75.5C 386.033,75.2451 384.033,74.2451 382.5,72.5 Z"/></g>
<g><path style="opacity:1" fill="#ab8657" d="M 507.5,81.5 C 505.678,83.0101 503.678,84.3434 501.5,85.5C 502.122,82.2244 504.122,80.8911 507.5,81.5 Z"/></g>
<g><path style="opacity:1" fill="#886543" d="M 518.5,82.5 C 520.833,82.8333 522.167,84.1667 522.5,86.5C 520.833,85.5 519.5,84.1667 518.5,82.5 Z"/></g>
<g><path style="opacity:1" fill="#fed689" d="M 507.5,81.5 C 511.234,81.3227 514.901,81.6561 518.5,82.5C 519.5,84.1667 520.833,85.5 522.5,86.5C 522.5,86.8333 522.5,87.1667 522.5,87.5C 523.419,90.0892 525.086,92.0892 527.5,93.5C 529.25,94.6594 530.25,96.326 530.5,98.5C 531.511,100.372 532.345,102.372 533,104.5C 533.816,105.823 534.983,106.489 536.5,106.5C 537.08,108.749 538.413,110.415 540.5,111.5C 540.338,113.527 540.505,115.527 541,117.5C 542.711,116.419 544.211,116.752 545.5,118.5C 548.579,121.257 550.912,124.59 552.5,128.5C 553.08,130.749 554.413,132.415 556.5,133.5C 558.25,134.659 559.25,136.326 559.5,138.5C 560.419,141.089 562.086,143.089 564.5,144.5C 564.833,145.167 565.167,145.833 565.5,146.5C 566.08,148.749 567.413,150.415 569.5,151.5C 570.833,152.167 571.833,153.167 572.5,154.5C 577.189,159.678 582.856,160.844 589.5,158C 591.324,157.34 592.657,156.173 593.5,154.5C 594.167,154.167 594.833,153.833 595.5,153.5C 598.198,153.155 600.198,151.822 601.5,149.5C 603.989,149.759 605.656,148.759 606.5,146.5C 606.842,145.662 607.508,145.328 608.5,145.5C 610.54,143.823 612.54,142.156 614.5,140.5C 614.842,139.662 615.508,139.328 616.5,139.5C 618.749,138.92 620.415,137.587 621.5,135.5C 621.833,135.5 622.167,135.5 622.5,135.5C 625.117,134.214 627.45,132.547 629.5,130.5C 631.966,129.702 633.966,128.369 635.5,126.5C 638.455,124.878 641.122,122.878 643.5,120.5C 645.027,120.573 646.027,119.906 646.5,118.5C 650.45,116.121 654.784,115.121 659.5,115.5C 661.411,116.075 663.078,117.075 664.5,118.5C 665.276,124.118 665.276,129.784 664.5,135.5C 664.5,135.833 664.5,136.167 664.5,136.5C 662.319,143.795 660.653,151.461 659.5,159.5C 659.384,162.86 659.051,166.193 658.5,169.5C 657.475,172.974 656.808,176.64 656.5,180.5C 656.5,181.5 656.5,182.5 656.5,183.5C 654.658,187.159 653.658,191.159 653.5,195.5C 653.5,196.833 653.5,198.167 653.5,199.5C 652.011,203.236 651.344,207.236 651.5,211.5C 649.896,212.287 649.229,213.62 649.5,215.5C 557.5,215.5 465.5,215.5 373.5,215.5C 373.715,213.821 373.048,212.821 371.5,212.5C 371.664,209.813 371.497,207.146 371,204.5C 370.722,203.584 370.222,202.918 369.5,202.5C 369.5,200.5 369.5,198.5 369.5,196.5C 369.666,192.154 369.499,187.821 369,183.5C 368.184,178.556 366.684,173.889 364.5,169.5C 363.949,166.193 363.616,162.86 363.5,159.5C 363.483,157.435 363.15,155.435 362.5,153.5C 362.199,147.489 361.699,141.489 361,135.5C 360.583,134.244 359.75,133.577 358.5,133.5C 358.5,132.833 358.5,132.167 358.5,131.5C 357.717,127.854 357.55,124.188 358,120.5C 359.707,118.963 361.207,117.296 362.5,115.5C 366.993,115.269 371.326,115.936 375.5,117.5C 379.976,121.575 384.976,124.908 390.5,127.5C 392.313,130.647 394.98,132.647 398.5,133.5C 398.973,134.906 399.973,135.573 401.5,135.5C 402.262,137.262 403.596,138.262 405.5,138.5C 407.629,140.95 410.296,142.617 413.5,143.5C 414.585,145.587 416.251,146.92 418.5,147.5C 418.842,148.338 419.508,148.672 420.5,148.5C 421.625,150.129 422.959,151.629 424.5,153C 428.755,154.631 432.755,156.631 436.5,159C 438.833,159.667 441.167,159.667 443.5,159C 446.445,158.861 448.779,157.694 450.5,155.5C 453.209,152.792 455.542,149.792 457.5,146.5C 457.75,144.326 458.75,142.659 460.5,141.5C 462.587,140.415 463.92,138.749 464.5,136.5C 469.222,133.399 472.222,129.066 473.5,123.5C 476.647,121.687 478.647,119.02 479.5,115.5C 480.675,115.719 481.675,115.386 482.5,114.5C 483.453,111.574 484.787,108.907 486.5,106.5C 486.328,105.508 486.662,104.842 487.5,104.5C 490.471,102.557 492.471,99.8908 493.5,96.5C 495.89,94.7334 497.557,92.4001 498.5,89.5C 499.512,88.1283 500.512,86.795 501.5,85.5C 503.678,84.3434 505.678,83.0101 507.5,81.5 Z"/></g>
<g><path style="opacity:1" fill="#b38e5c" d="M 522.5,87.5 C 524.914,88.9108 526.581,90.9108 527.5,93.5C 525.086,92.0892 523.419,90.0892 522.5,87.5 Z"/></g>
<g><path style="opacity:1" fill="#a37f53" d="M 418.5,94.5 C 420.027,94.427 421.027,95.0937 421.5,96.5C 419.973,96.573 418.973,95.9063 418.5,94.5 Z"/></g>
<g><path style="opacity:1" fill="#ae8959" d="M 498.5,89.5 C 497.557,92.4001 495.89,94.7334 493.5,96.5C 494.456,93.5614 496.123,91.228 498.5,89.5 Z"/></g>
<g><path style="opacity:1" fill="#ad8958" d="M 493.5,96.5 C 492.471,99.8908 490.471,102.557 487.5,104.5C 489.016,101.467 491.016,98.8003 493.5,96.5 Z"/></g>
<g><path style="opacity:1" fill="#785639" d="M 319.5,100.5 C 319.741,102.898 319.074,104.898 317.5,106.5C 317.259,104.102 317.926,102.102 319.5,100.5 Z"/></g>
<g><path style="opacity:1" fill="#d5af70" d="M 530.5,98.5 C 533.647,100.313 535.647,102.98 536.5,106.5C 534.983,106.489 533.816,105.823 533,104.5C 532.345,102.372 531.511,100.372 530.5,98.5 Z"/></g>
<g><path style="opacity:1" fill="#785639" d="M 703.5,100.5 C 705.074,102.102 705.741,104.102 705.5,106.5C 703.926,104.898 703.259,102.898 703.5,100.5 Z"/></g>
<g><path style="opacity:1" fill="#ae8859" d="M 536.5,106.5 C 538.587,107.585 539.92,109.251 540.5,111.5C 538.413,110.415 537.08,108.749 536.5,106.5 Z"/></g>
<g><path style="opacity:1" fill="#b38e5c" d="M 362.5,115.5 C 365.304,114.362 368.304,114.195 371.5,115C 373.32,115.2 374.653,116.034 375.5,117.5C 371.326,115.936 366.993,115.269 362.5,115.5 Z"/></g>
<g><path style="opacity:1" fill="#c6a067" d="M 486.5,106.5 C 484.787,108.907 483.453,111.574 482.5,114.5C 481.675,115.386 480.675,115.719 479.5,115.5C 480.694,111.637 483.027,108.637 486.5,106.5 Z"/></g>
<g><path style="opacity:1" fill="#b7925f" d="M 659.5,115.5 C 654.784,115.121 650.45,116.121 646.5,118.5C 647.453,116.39 649.119,115.223 651.5,115C 654.367,114.199 657.034,114.366 659.5,115.5 Z"/></g>
<g><path style="opacity:1" fill="#d7b172" d="M 540.5,111.5 C 542.547,113.55 544.214,115.883 545.5,118.5C 544.211,116.752 542.711,116.419 541,117.5C 540.505,115.527 540.338,113.527 540.5,111.5 Z"/></g>
<g><path style="opacity:1" fill="#99744c" d="M 646.5,118.5 C 646.027,119.906 645.027,120.573 643.5,120.5C 643.973,119.094 644.973,118.427 646.5,118.5 Z"/></g>
<g><path style="opacity:1" fill="#a58154" d="M 479.5,115.5 C 478.647,119.02 476.647,121.687 473.5,123.5C 475.122,120.545 477.122,117.878 479.5,115.5 Z"/></g>
<g><path style="opacity:1" fill="#a17c51" d="M 362.5,115.5 C 361.207,117.296 359.707,118.963 358,120.5C 357.55,124.188 357.717,127.854 358.5,131.5C 356.588,127.806 356.088,123.806 357,119.5C 358.451,117.536 360.284,116.203 362.5,115.5 Z"/></g>
<g><path style="opacity:1" fill="#916e48" d="M 664.5,118.5 C 665.117,118.611 665.617,118.944 666,119.5C 666.841,125.091 666.341,130.424 664.5,135.5C 665.276,129.784 665.276,124.118 664.5,118.5 Z"/></g>
<g><path style="opacity:1" fill="#916e48" d="M 316.5,109.5 C 315.635,117.466 315.302,125.466 315.5,133.5C 314.345,126.679 314.179,119.679 315,112.5C 315.232,111.263 315.732,110.263 316.5,109.5 Z"/></g>
<g><path style="opacity:1" fill="#a07b50" d="M 643.5,120.5 C 641.122,122.878 638.455,124.878 635.5,126.5C 637.313,123.353 639.98,121.353 643.5,120.5 Z"/></g>
<g><path style="opacity:1" fill="#c39d66" d="M 473.5,123.5 C 472.222,129.066 469.222,133.399 464.5,136.5C 466.736,131.604 469.736,127.271 473.5,123.5 Z"/></g>
<g><path style="opacity:1" fill="#b6915d" d="M 635.5,126.5 C 633.966,128.369 631.966,129.702 629.5,130.5C 630.802,128.178 632.802,126.845 635.5,126.5 Z"/></g>
<g><path style="opacity:1" fill="#6c4a31" d="M 390.5,127.5 C 392.372,128.511 394.372,129.345 396.5,130C 397.823,130.816 398.489,131.983 398.5,133.5C 394.98,132.647 392.313,130.647 390.5,127.5 Z"/></g>
<g><path style="opacity:1" fill="#a98556" d="M 552.5,128.5 C 554.587,129.585 555.92,131.251 556.5,133.5C 554.413,132.415 553.08,130.749 552.5,128.5 Z"/></g>
<g><path style="opacity:1" fill="#83603f" d="M 398.5,133.5 C 400.027,133.427 401.027,134.094 401.5,135.5C 399.973,135.573 398.973,134.906 398.5,133.5 Z"/></g>
<g><path style="opacity:1" fill="#b18c5b" d="M 629.5,130.5 C 627.45,132.547 625.117,134.214 622.5,135.5C 623.992,132.677 626.326,131.01 629.5,130.5 Z"/></g>
<g><path style="opacity:1" fill="#e0b977" d="M 358.5,133.5 C 359.75,133.577 360.583,134.244 361,135.5C 361.699,141.489 362.199,147.489 362.5,153.5C 362.167,153.5 361.833,153.5 361.5,153.5C 361.5,152.5 361.5,151.5 361.5,150.5C 361.237,145.876 360.237,141.542 358.5,137.5C 358.5,136.167 358.5,134.833 358.5,133.5 Z"/></g>
<g><path style="opacity:1" fill="#876441" d="M 401.5,135.5 C 403.404,135.738 404.738,136.738 405.5,138.5C 403.596,138.262 402.262,137.262 401.5,135.5 Z"/></g>
<g><path style="opacity:1" fill="#a58154" d="M 621.5,135.5 C 620.415,137.587 618.749,138.92 616.5,139.5C 617.585,137.413 619.251,136.08 621.5,135.5 Z"/></g>
<g><path style="opacity:1" fill="#97744c" d="M 464.5,136.5 C 463.92,138.749 462.587,140.415 460.5,141.5C 461.08,139.251 462.413,137.585 464.5,136.5 Z"/></g>
<g><path style="opacity:1" fill="#8b6844" d="M 614.5,140.5 C 612.54,142.156 610.54,143.823 608.5,145.5C 609.268,142.438 611.268,140.772 614.5,140.5 Z"/></g>
<g><path style="opacity:1" fill="#af8a5a" d="M 559.5,138.5 C 561.914,139.911 563.581,141.911 564.5,144.5C 562.086,143.089 560.419,141.089 559.5,138.5 Z"/></g>
<g><path style="opacity:1" fill="#906d47" d="M 358.5,137.5 C 360.237,141.542 361.237,145.876 361.5,150.5C 361.167,150.5 360.833,150.5 360.5,150.5C 359.648,146.206 358.982,141.873 358.5,137.5 Z"/></g>
<g><path style="opacity:1" fill="#714f35" d="M 413.5,143.5 C 415.749,144.08 417.415,145.413 418.5,147.5C 416.251,146.92 414.585,145.587 413.5,143.5 Z"/></g>
<g><path style="opacity:1" fill="#c59f67" d="M 606.5,146.5 C 605.656,148.759 603.989,149.759 601.5,149.5C 602.659,147.75 604.326,146.75 606.5,146.5 Z"/></g>
<g><path style="opacity:1" fill="#6d4b32" d="M 420.5,148.5 C 422.179,148.892 423.846,149.392 425.5,150C 432.409,157.782 440.742,159.616 450.5,155.5C 448.779,157.694 446.445,158.861 443.5,159C 441.167,159.667 438.833,159.667 436.5,159C 432.755,156.631 428.755,154.631 424.5,153C 422.959,151.629 421.625,150.129 420.5,148.5 Z"/></g>
<g><path style="opacity:1" fill="#9c784f" d="M 664.5,136.5 C 664.001,140.49 663.501,144.49 663,148.5C 662.154,152.388 660.987,156.055 659.5,159.5C 660.653,151.461 662.319,143.795 664.5,136.5 Z"/></g>
<g><path style="opacity:1" fill="#a58154" d="M 457.5,146.5 C 455.542,149.792 453.209,152.792 450.5,155.5C 451.694,151.637 454.027,148.637 457.5,146.5 Z"/></g>
<g><path style="opacity:1" fill="#ab8657" d="M 565.5,146.5 C 567.587,147.585 568.92,149.251 569.5,151.5C 567.413,150.415 566.08,148.749 565.5,146.5 Z"/></g>
<g><path style="opacity:1" fill="#95724a" d="M 601.5,149.5 C 600.198,151.822 598.198,153.155 595.5,153.5C 597.147,151.674 599.147,150.34 601.5,149.5 Z"/></g>
<g><path style="opacity:1" fill="#62412c" d="M 572.5,154.5 C 576.033,156.043 579.7,157.043 583.5,157.5C 587.228,157.626 590.561,156.626 593.5,154.5C 592.657,156.173 591.324,157.34 589.5,158C 582.856,160.844 577.189,159.678 572.5,154.5 Z"/></g>
<g><path style="opacity:1" fill="#ac8858" d="M 361.5,153.5 C 361.833,153.5 362.167,153.5 362.5,153.5C 363.15,155.435 363.483,157.435 363.5,159.5C 361.926,157.898 361.259,155.898 361.5,153.5 Z"/></g>
<g><path style="opacity:1" fill="#68462f" d="M 360.5,150.5 C 360.833,150.5 361.167,150.5 361.5,150.5C 361.5,151.5 361.5,152.5 361.5,153.5C 361.259,155.898 361.926,157.898 363.5,159.5C 363.616,162.86 363.949,166.193 364.5,169.5C 361.746,163.591 360.413,157.258 360.5,150.5 Z"/></g>
<g><path style="opacity:1" fill="#c29d65" d="M 318.5,160.5 C 320.322,165.893 321.322,171.559 321.5,177.5C 319.42,172.145 318.42,166.478 318.5,160.5 Z"/></g>
<g><path style="opacity:1" fill="#c29d65" d="M 704.5,160.5 C 704.58,166.478 703.58,172.145 701.5,177.5C 701.678,171.559 702.678,165.893 704.5,160.5 Z"/></g>
<g><path style="opacity:1" fill="#d2ac6f" d="M 364.5,169.5 C 366.684,173.889 368.184,178.556 369,183.5C 369.499,187.821 369.666,192.154 369.5,196.5C 368.257,193.323 367.257,189.99 366.5,186.5C 366.72,181.9 366.054,177.567 364.5,173.5C 364.5,172.167 364.5,170.833 364.5,169.5 Z"/></g>
<g><path style="opacity:1" fill="#98754c" d="M 658.5,169.5 C 658.884,173.489 658.217,177.155 656.5,180.5C 656.808,176.64 657.475,172.974 658.5,169.5 Z"/></g>
<g><path style="opacity:1" fill="#68462f" d="M 364.5,173.5 C 366.054,177.567 366.72,181.9 366.5,186.5C 364.946,182.433 364.28,178.1 364.5,173.5 Z"/></g>
<g><path style="opacity:1" fill="#ad8859" d="M 656.5,183.5 C 656.342,187.841 655.342,191.841 653.5,195.5C 653.658,191.159 654.658,187.159 656.5,183.5 Z"/></g>
<g><path style="opacity:1" fill="#886543" d="M 653.5,199.5 C 653.72,204.1 653.054,208.433 651.5,212.5C 651.5,212.167 651.5,211.833 651.5,211.5C 651.344,207.236 652.011,203.236 653.5,199.5 Z"/></g>
<g><path style="opacity:1" fill="#916e48" d="M 369.5,202.5 C 370.222,202.918 370.722,203.584 371,204.5C 371.497,207.146 371.664,209.813 371.5,212.5C 370.419,209.373 369.753,206.04 369.5,202.5 Z"/></g>
<g><path style="opacity:1" fill="#896643" d="M 697.5,202.5 C 697.326,204.861 696.993,207.194 696.5,209.5C 696.167,209.5 695.833,209.5 695.5,209.5C 695.171,206.772 695.837,204.438 697.5,202.5 Z"/></g>
<g><path style="opacity:1" fill="#d5ae70" d="M 326.5,209.5 C 327.468,211.607 327.802,213.941 327.5,216.5C 321.5,216.5 315.5,216.5 309.5,216.5C 314.975,215.511 320.642,215.178 326.5,215.5C 326.5,213.5 326.5,211.5 326.5,209.5 Z"/></g>
<g><path style="opacity:1" fill="#d7b172" d="M 651.5,211.5 C 651.5,211.833 651.5,212.167 651.5,212.5C 651.768,214.099 651.434,215.432 650.5,216.5C 557.429,216.831 464.429,216.497 371.5,215.5C 371.5,214.5 371.5,213.5 371.5,212.5C 373.048,212.821 373.715,213.821 373.5,215.5C 465.5,215.5 557.5,215.5 649.5,215.5C 649.229,213.62 649.896,212.287 651.5,211.5 Z"/></g>
<g><path style="opacity:1" fill="#d4ae70" d="M 695.5,209.5 C 695.833,209.5 696.167,209.5 696.5,209.5C 696.5,211.5 696.5,213.5 696.5,215.5C 701.363,215.181 706.03,215.514 710.5,216.5C 705.5,216.5 700.5,216.5 695.5,216.5C 695.5,214.167 695.5,211.833 695.5,209.5 Z"/></g>
<g><path style="opacity:1" fill="#805d3e" d="M 371.5,215.5 C 464.429,216.497 557.429,216.831 650.5,216.5C 604.168,217.167 557.668,217.5 511,217.5C 464.162,217.5 417.662,216.833 371.5,215.5 Z"/></g>
<g><path style="opacity:1" fill="#a98456" d="M 270.5,229.5 C 269.22,230.931 267.553,231.598 265.5,231.5C 266.78,230.069 268.447,229.402 270.5,229.5 Z"/></g>
<g><path style="opacity:1" fill="#ae8a59" d="M 243.5,255.5 C 243.771,257.38 243.104,258.713 241.5,259.5C 241.229,257.62 241.896,256.287 243.5,255.5 Z"/></g>
<g><path style="opacity:1" fill="#b8935f" d="M 775.5,253.5 C 778.298,256.208 779.965,259.542 780.5,263.5C 778.346,260.431 776.679,257.098 775.5,253.5 Z"/></g>
<g><path style="opacity:1" fill="#b75d43" d="M 707.5,259.5 C 573.823,259.182 440.156,259.515 306.5,260.5C 308.292,259.691 310.292,259.191 312.5,259C 444.334,258.167 576.001,258.334 707.5,259.5 Z"/></g>
<g><path style="opacity:1" fill="#e87554" d="M 707.5,259.5 C 714.136,259.155 720.136,260.822 725.5,264.5C 728.492,267.132 731.825,269.466 735.5,271.5C 736.839,273.873 738.172,276.207 739.5,278.5C 739.41,281.152 740.076,283.485 741.5,285.5C 742.461,287.265 742.795,289.265 742.5,291.5C 742.5,343.167 742.5,394.833 742.5,446.5C 708.996,446.168 675.662,446.502 642.5,447.5C 637.32,447.847 632.32,448.513 627.5,449.5C 609.488,453.85 596.155,464.184 587.5,480.5C 585.115,483.653 583.782,487.32 583.5,491.5C 582.79,493.746 582.29,496.08 582,498.5C 581.333,517.833 581.333,537.167 582,556.5C 588.164,586.502 606.331,603.502 636.5,607.5C 671.663,608.498 706.996,608.832 742.5,608.5C 742.5,655.167 742.5,701.833 742.5,748.5C 742.326,750.861 741.993,753.194 741.5,755.5C 739.603,757.698 738.603,760.364 738.5,763.5C 734.208,771.13 727.874,776.13 719.5,778.5C 716.417,778.916 713.417,779.583 710.5,780.5C 575.157,780.816 439.824,780.483 304.5,779.5C 304.167,779.5 303.833,779.5 303.5,779.5C 302.01,777.72 300.01,777.054 297.5,777.5C 288.283,774.286 282.616,767.952 280.5,758.5C 280.819,756.25 280.319,754.25 279,752.5C 278.5,601.167 278.333,449.834 278.5,298.5C 278.232,292.046 278.898,285.713 280.5,279.5C 280.755,277.033 281.755,275.033 283.5,273.5C 286.833,270.833 289.833,267.833 292.5,264.5C 296.953,262.42 301.62,261.087 306.5,260.5C 440.156,259.515 573.823,259.182 707.5,259.5 Z"/></g>
<g><path style="opacity:1" fill="#b85d43" d="M 725.5,264.5 C 726.93,264.421 728.264,264.754 729.5,265.5C 731.903,267.236 733.903,269.236 735.5,271.5C 731.825,269.466 728.492,267.132 725.5,264.5 Z"/></g>
<g><path style="opacity:1" fill="#c6a168" d="M 781.5,265.5 C 782.117,265.611 782.617,265.944 783,266.5C 784.154,270.447 784.987,274.447 785.5,278.5C 785.167,278.5 784.833,278.5 784.5,278.5C 783.344,274.207 782.344,269.874 781.5,265.5 Z"/></g>
<g><path style="opacity:1" fill="#ac573f" d="M 292.5,264.5 C 289.833,267.833 286.833,270.833 283.5,273.5C 285.5,269.5 288.5,266.5 292.5,264.5 Z"/></g>
<g><path style="opacity:1" fill="#603e2a" d="M 237.5,271.5 C 237.468,275.983 236.468,279.983 234.5,283.5C 234.272,279.076 235.272,275.076 237.5,271.5 Z"/></g>
<g><path style="opacity:1" fill="#a6543c" d="M 739.5,278.5 C 740.924,280.515 741.59,282.848 741.5,285.5C 740.076,283.485 739.41,281.152 739.5,278.5 Z"/></g>
<g><path style="opacity:1" fill="#f3a66f" d="M 786.5,280.5 C 865.095,374.435 944.095,468.101 1023.5,561.5C 1023.5,715.5 1023.5,869.5 1023.5,1023.5C 798.833,1023.5 574.167,1023.5 349.5,1023.5C 323.611,991.433 297.111,959.767 270,928.5C 269.209,927.255 268.709,925.922 268.5,924.5C 274.871,928.244 281.538,931.411 288.5,934C 294.614,934.513 300.614,935.513 306.5,937C 440.833,937.667 575.167,937.667 709.5,937C 744.101,935.031 768.434,918.198 782.5,886.5C 784.41,885.025 785.576,883.025 786,880.5C 786.333,881.5 786.667,882.5 787,883.5C 786.804,877.558 786.97,871.558 787.5,865.5C 788.481,793.516 788.814,721.516 788.5,649.5C 789.791,649.737 790.791,649.404 791.5,648.5C 815.007,640.823 829.174,624.823 834,600.5C 834.667,566.167 834.667,531.833 834,497.5C 828.125,472.126 812.625,456.126 787.5,449.5C 787.796,393.155 787.462,336.822 786.5,280.5 Z"/></g>
<g><path style="opacity:1" fill="#5a2d21" d="M 276.5,290.5 C 276.167,442.334 276.5,594.001 277.5,745.5C 277.5,747.167 277.5,748.833 277.5,750.5C 276.778,750.082 276.278,749.416 276,748.5C 275.167,595.666 275.334,442.999 276.5,290.5 Z"/></g>
<g><path style="opacity:1" fill="#a4533c" d="M 280.5,279.5 C 278.898,285.713 278.232,292.046 278.5,298.5C 277.5,447.332 277.167,596.332 277.5,745.5C 276.5,594.001 276.167,442.334 276.5,290.5C 277.429,287.325 278.262,283.991 279,280.5C 279.383,279.944 279.883,279.611 280.5,279.5 Z"/></g>
<g><path style="opacity:1" fill="#df7151" d="M 278.5,298.5 C 278.333,449.834 278.5,601.167 279,752.5C 280.319,754.25 280.819,756.25 280.5,758.5C 278.023,756.584 277.023,753.917 277.5,750.5C 277.5,748.833 277.5,747.167 277.5,745.5C 277.167,596.332 277.5,447.332 278.5,298.5 Z"/></g>
<g><path style="opacity:1" fill="#623928" d="M 784.5,278.5 C 784.833,278.5 785.167,278.5 785.5,278.5C 785.833,279.167 786.167,279.833 786.5,280.5C 787.462,336.822 787.796,393.155 787.5,449.5C 785.67,396.176 784.837,342.509 785,288.5C 784.667,291.833 784.333,295.167 784,298.5C 783.712,291.831 783.878,285.164 784.5,278.5 Z"/></g>
<g><path style="opacity:1" fill="#ad583f" d="M 742.5,291.5 C 743.167,291.5 743.5,291.833 743.5,292.5C 743.5,344.167 743.5,395.833 743.5,447.5C 709.833,447.5 676.167,447.5 642.5,447.5C 675.662,446.502 708.996,446.168 742.5,446.5C 742.5,394.833 742.5,343.167 742.5,291.5 Z"/></g>
<g><path style="opacity:1" fill="#6b3627" d="M 743.5,292.5 C 744.499,344.331 744.832,396.331 744.5,448.5C 705.491,448.257 666.491,448.591 627.5,449.5C 632.32,448.513 637.32,447.847 642.5,447.5C 676.167,447.5 709.833,447.5 743.5,447.5C 743.5,395.833 743.5,344.167 743.5,292.5 Z"/></g>
<g><path style="opacity:1" fill="#aa563e" d="M 587.5,480.5 C 586.391,483.733 585.558,487.066 585,490.5C 584.617,491.056 584.117,491.389 583.5,491.5C 583.782,487.32 585.115,483.653 587.5,480.5 Z"/></g>
<g><path style="opacity:1" fill="#b45b42" d="M 771.5,489.5 C 728.832,489.333 686.165,489.5 643.5,490C 640.568,490.953 637.568,491.453 634.5,491.5C 635.718,490.839 637.051,490.172 638.5,489.5C 682.998,488.169 727.331,488.169 771.5,489.5 Z"/></g>
<g><path style="opacity:1" fill="#e77554" d="M 771.5,489.5 C 781.52,488.545 787.52,492.879 789.5,502.5C 789.667,518.17 789.5,533.837 789,549.5C 788.498,552.513 787.998,555.513 787.5,558.5C 785.833,560.833 783.833,562.833 781.5,564.5C 779.25,564.181 777.25,564.681 775.5,566C 730.167,566.667 684.833,566.667 639.5,566C 632.777,565.436 628.777,561.936 627.5,555.5C 626.545,539.535 626.212,523.535 626.5,507.5C 626.291,503.139 627.291,499.139 629.5,495.5C 630.585,493.413 632.251,492.08 634.5,491.5C 637.568,491.453 640.568,490.953 643.5,490C 686.165,489.5 728.832,489.333 771.5,489.5 Z"/></g>
<g><path style="opacity:1" fill="#f4a870" d="M 677.5,495.5 C 671.441,495.254 665.441,495.587 659.5,496.5C 659.611,495.883 659.944,495.383 660.5,495C 666.349,494.182 672.015,494.348 677.5,495.5 Z"/></g>
<g><path style="opacity:1" fill="#fed589" d="M 677.5,495.5 C 677.842,496.338 678.508,496.672 679.5,496.5C 681.509,498.065 683.843,499.065 686.5,499.5C 703.756,512.204 706.922,527.871 696,546.5C 690.446,553.526 683.279,557.859 674.5,559.5C 669.463,559.587 664.463,559.254 659.5,558.5C 657.345,558.628 655.345,558.128 653.5,557C 636.478,543.939 632.645,527.772 642,508.5C 644.833,505.667 647.667,502.833 650.5,500C 653.072,497.713 656.072,496.547 659.5,496.5C 665.441,495.587 671.441,495.254 677.5,495.5 Z"/></g>
<g><path style="opacity:1" fill="#f5aa71" d="M 679.5,496.5 C 682.346,496.552 684.68,497.552 686.5,499.5C 683.843,499.065 681.509,498.065 679.5,496.5 Z"/></g>
<g><path style="opacity:1" fill="#834230" d="M 629.5,495.5 C 627.291,499.139 626.291,503.139 626.5,507.5C 625.504,521.99 625.171,536.657 625.5,551.5C 624.339,536.005 624.172,520.339 625,504.5C 624.938,500.623 626.438,497.623 629.5,495.5 Z"/></g>
<g><path style="opacity:1" fill="#c06146" d="M 626.5,507.5 C 626.212,523.535 626.545,539.535 627.5,555.5C 625.896,554.713 625.229,553.38 625.5,551.5C 625.171,536.657 625.504,521.99 626.5,507.5 Z"/></g>
<g><path style="opacity:1" fill="#bf6045" d="M 789.5,502.5 C 790.662,518.995 790.828,535.662 790,552.5C 789.76,554.852 788.927,556.852 787.5,558.5C 787.998,555.513 788.498,552.513 789,549.5C 789.5,533.837 789.667,518.17 789.5,502.5 Z"/></g>
<g><path style="opacity:1" fill="#f8b879" d="M 659.5,558.5 C 664.463,559.254 669.463,559.587 674.5,559.5C 672.696,560.162 670.696,560.495 668.5,560.5C 665.186,560.657 662.186,559.991 659.5,558.5 Z"/></g>
<g><path style="opacity:1" fill="#874431" d="M 787.5,558.5 C 787.167,562.167 785.167,564.167 781.5,564.5C 783.833,562.833 785.833,560.833 787.5,558.5 Z"/></g>
<g><path style="opacity:1" fill="#63422d" d="M 234.5,284.5 C 233.506,473.816 233.173,663.149 233.5,852.5C 232.5,666.667 232.167,480.667 232.5,294.5C 232.322,290.878 232.989,287.544 234.5,284.5 Z"/></g>
<g><path style="opacity:1" fill="#a96e4b" d="M 791.5,648.5 C 790.791,649.404 789.791,649.737 788.5,649.5C 788.814,721.516 788.481,793.516 787.5,865.5C 787.167,865.5 786.833,865.5 786.5,865.5C 786.333,793.499 786.5,721.499 787,649.5C 788.356,648.62 789.856,648.286 791.5,648.5 Z"/></g>
<g><path style="opacity:1" fill="#ba9460" d="M 232.5,294.5 C 232.167,480.667 232.5,666.667 233.5,852.5C 233.5,858.167 233.5,863.833 233.5,869.5C 232.675,865.353 232.175,861.019 232,856.5C 231.167,669 231.334,481.666 232.5,294.5 Z"/></g>
<g><path style="opacity:1" fill="#904934" d="M 636.5,607.5 C 672.167,607.5 707.833,607.5 743.5,607.5C 743.832,654.67 743.499,701.67 742.5,748.5C 742.5,701.833 742.5,655.167 742.5,608.5C 706.996,608.832 671.663,608.498 636.5,607.5 Z"/></g>
<g><path style="opacity:1" fill="#934a35" d="M 741.5,755.5 C 741.267,758.542 740.267,761.208 738.5,763.5C 738.603,760.364 739.603,757.698 741.5,755.5 Z"/></g>
<g><path style="opacity:1" fill="#924a35" d="M 297.5,777.5 C 300.01,777.054 302.01,777.72 303.5,779.5C 301.102,779.741 299.102,779.074 297.5,777.5 Z"/></g>
<g><path style="opacity:1" fill="#663426" d="M 719.5,778.5 C 717.159,780.851 714.159,781.851 710.5,781.5C 710.5,781.167 710.5,780.833 710.5,780.5C 713.417,779.583 716.417,778.916 719.5,778.5 Z"/></g>
<g><path style="opacity:1" fill="#c06146" d="M 304.5,779.5 C 439.824,780.483 575.157,780.816 710.5,780.5C 710.5,780.833 710.5,781.167 710.5,781.5C 576.833,781.667 443.166,781.5 309.5,781C 307.618,780.802 305.952,780.302 304.5,779.5 Z"/></g>
<g><path style="opacity:1" fill="#765438" d="M 283.5,816.5 C 282.5,816.5 281.5,816.5 280.5,816.5C 280.5,817.5 280.5,818.5 280.5,819.5C 277.5,814.5 278.5,813.5 283.5,816.5 Z"/></g>
<g><path style="opacity:1" fill="#b08c5b" d="M 738.5,820.5 C 738.715,818.821 738.048,817.821 736.5,817.5C 742.263,813.607 742.929,814.607 738.5,820.5 Z"/></g>
<g><path style="opacity:1" fill="#b6915e" d="M 735.5,817.5 C 733.095,818.768 730.428,819.435 727.5,819.5C 727.611,818.883 727.944,818.383 728.5,818C 730.81,817.503 733.143,817.337 735.5,817.5 Z"/></g>
<g><path style="opacity:1" fill="#c9a369" d="M 283.5,816.5 C 286.167,817.167 288.833,817.833 291.5,818.5C 288.482,818.335 285.482,818.502 282.5,819C 283.559,822.218 285.225,825.051 287.5,827.5C 284.103,825.769 281.77,823.103 280.5,819.5C 280.5,818.5 280.5,817.5 280.5,816.5C 281.5,816.5 282.5,816.5 283.5,816.5 Z"/></g>
<g><path style="opacity:1" fill="#fcd589" d="M 735.5,817.5 C 735.833,817.5 736.167,817.5 736.5,817.5C 738.048,817.821 738.715,818.821 738.5,820.5C 732.053,830.94 722.719,836.94 710.5,838.5C 577.167,838.5 443.833,838.5 310.5,838.5C 308.898,836.926 306.898,836.259 304.5,836.5C 297.495,835.936 291.828,832.936 287.5,827.5C 285.225,825.051 283.559,822.218 282.5,819C 285.482,818.502 288.482,818.335 291.5,818.5C 296.547,819.592 301.547,820.925 306.5,822.5C 308.631,823.314 310.964,823.814 313.5,824C 379,824.167 444.5,824.333 510,824.5C 575.837,824.5 641.337,823.833 706.5,822.5C 709.167,822.5 711.833,822.5 714.5,822.5C 717.508,822.299 720.508,821.966 723.5,821.5C 725.333,821.415 726.666,820.748 727.5,819.5C 730.428,819.435 733.095,818.768 735.5,817.5 Z"/></g>
<g><path style="opacity:1" fill="#d2ac6f" d="M 727.5,819.5 C 726.666,820.748 725.333,821.415 723.5,821.5C 720.508,821.966 717.508,822.299 714.5,822.5C 714.611,821.883 714.944,821.383 715.5,821C 719.491,820.358 723.491,819.858 727.5,819.5 Z"/></g>
<g><path style="opacity:1" fill="#e0ba77" d="M 306.5,822.5 C 439.833,822.5 573.167,822.5 706.5,822.5C 641.337,823.833 575.837,824.5 510,824.5C 444.5,824.333 379,824.167 313.5,824C 310.964,823.814 308.631,823.314 306.5,822.5 Z"/></g>
<g><path style="opacity:1" fill="#a17d51" d="M 304.5,836.5 C 306.898,836.259 308.898,836.926 310.5,838.5C 307.99,838.946 305.99,838.28 304.5,836.5 Z"/></g>
<g><path style="opacity:1" fill="#64422d" d="M 310.5,838.5 C 443.833,838.5 577.167,838.5 710.5,838.5C 710.389,839.117 710.056,839.617 709.5,840C 643,840.167 576.5,840.333 510,840.5C 443.163,840.5 376.663,839.833 310.5,838.5 Z"/></g>
<g><path style="opacity:1" fill="#bd9762" d="M 738.5,876.5 C 738.5,875.167 737.833,874.5 736.5,874.5C 737.531,873.751 738.698,873.085 740,872.5C 740.773,874.352 740.273,875.686 738.5,876.5 Z"/></g>
<g><path style="opacity:1" fill="#c7a168" d="M 233.5,869.5 C 234.222,869.918 234.722,870.584 235,871.5C 235.836,876.513 236.669,881.513 237.5,886.5C 234.609,881.432 233.275,875.765 233.5,869.5 Z"/></g>
<g><path style="opacity:1" fill="#ddb776" d="M 289.5,876.5 C 283.647,876.637 282.314,878.97 285.5,883.5C 282.259,881.017 280.592,877.684 280.5,873.5C 283.509,874.629 286.509,875.629 289.5,876.5 Z"/></g>
<g><path style="opacity:1" fill="#fed689" d="M 736.5,874.5 C 737.833,874.5 738.5,875.167 738.5,876.5C 738.204,878.403 737.537,880.07 736.5,881.5C 734.81,883.519 733.144,885.519 731.5,887.5C 728.484,888.343 725.817,889.843 723.5,892C 719.088,893.019 714.755,894.186 710.5,895.5C 577.833,895.667 445.166,895.5 312.5,895C 308.246,893.686 303.913,892.853 299.5,892.5C 297.297,892.396 295.297,891.73 293.5,890.5C 293.027,889.094 292.027,888.427 290.5,888.5C 288.462,887.246 286.796,885.579 285.5,883.5C 282.314,878.97 283.647,876.637 289.5,876.5C 294.63,877.913 299.963,878.913 305.5,879.5C 305.833,879.5 306.167,879.5 306.5,879.5C 307.263,880.268 308.263,880.768 309.5,881C 441.833,881.667 574.167,881.667 706.5,881C 709.365,880.817 712.031,880.317 714.5,879.5C 720.082,879.143 725.415,878.143 730.5,876.5C 732.626,875.952 734.626,875.285 736.5,874.5 Z"/></g>
<g><path style="opacity:1" fill="#a98556" d="M 289.5,876.5 C 294.519,876.752 299.519,877.252 304.5,878C 305.056,878.383 305.389,878.883 305.5,879.5C 299.963,878.913 294.63,877.913 289.5,876.5 Z"/></g>
<g><path style="opacity:1" fill="#b6915e" d="M 730.5,876.5 C 725.415,878.143 720.082,879.143 714.5,879.5C 714.611,878.883 714.944,878.383 715.5,878C 720.481,877.252 725.481,876.752 730.5,876.5 Z"/></g>
<g><path style="opacity:1" fill="#ce8b5d" d="M 786.5,865.5 C 786.833,865.5 787.167,865.5 787.5,865.5C 786.97,871.558 786.804,877.558 787,883.5C 786.667,882.5 786.333,881.5 786,880.5C 785.576,883.025 784.41,885.025 782.5,886.5C 783.563,879.402 784.896,872.402 786.5,865.5 Z"/></g>
<g><path style="opacity:1" fill="#c6a168" d="M 306.5,879.5 C 442.5,879.5 578.5,879.5 714.5,879.5C 712.031,880.317 709.365,880.817 706.5,881C 574.167,881.667 441.833,881.667 309.5,881C 308.263,880.768 307.263,880.268 306.5,879.5 Z"/></g>
<g><path style="opacity:1" fill="#6f4d33" d="M 736.5,881.5 C 736.208,884.801 734.541,886.801 731.5,887.5C 733.144,885.519 734.81,883.519 736.5,881.5 Z"/></g>
<g><path style="opacity:1" fill="#9b774f" d="M 290.5,888.5 C 292.027,888.427 293.027,889.094 293.5,890.5C 291.973,890.573 290.973,889.906 290.5,888.5 Z"/></g>
<g><path style="opacity:1" fill="#bf9a63" d="M 299.5,892.5 C 303.913,892.853 308.246,893.686 312.5,895C 445.166,895.5 577.833,895.667 710.5,895.5C 577.001,896.666 443.334,896.833 309.5,896C 305.833,895.429 302.5,894.263 299.5,892.5 Z"/></g>
<g><path style="opacity:1" fill="#926e48" d="M 257.5,917.5 C 259.179,917.285 260.179,917.952 260.5,919.5C 259.29,919.068 258.29,918.401 257.5,917.5 Z"/></g>
</svg>
