<?xml version="1.0" encoding="UTF-8"?>
<!DOCTYPE svg PUBLIC "-//W3C//DTD SVG 1.1//EN" "http://www.w3.org/Graphics/SVG/1.1/DTD/svg11.dtd">
<svg xmlns="http://www.w3.org/2000/svg" version="1.1" width="210px" height="210px" style="shape-rendering:geometricPrecision; text-rendering:geometricPrecision; image-rendering:optimizeQuality; fill-rule:evenodd; clip-rule:evenodd" xmlns:xlink="http://www.w3.org/1999/xlink">
<g><path style="opacity:0.997" fill="#06c75a" d="M 89.5,-0.5 C 99.5,-0.5 109.5,-0.5 119.5,-0.5C 169.167,9.83333 199.167,39.8333 209.5,89.5C 209.5,99.5 209.5,109.5 209.5,119.5C 199.167,169.167 169.167,199.167 119.5,209.5C 109.5,209.5 99.5,209.5 89.5,209.5C 39.8333,199.167 9.83333,169.167 -0.5,119.5C -0.5,109.5 -0.5,99.5 -0.5,89.5C 9.83333,39.8333 39.8333,9.83333 89.5,-0.5 Z"/></g>
<g><path style="opacity:1" fill="#fefefe" d="M 117.5,105.5 C 117.783,106.289 118.283,106.956 119,107.5C 119.5,93.1705 119.667,78.8372 119.5,64.5C 127.833,64.5 136.167,64.5 144.5,64.5C 144.5,91.1667 144.5,117.833 144.5,144.5C 136.14,144.831 127.807,144.498 119.5,143.5C 110.157,130.138 100.824,116.804 91.5,103.5C 91.2172,102.711 90.7172,102.044 90,101.5C 89.5001,115.829 89.3334,130.163 89.5,144.5C 81.1667,144.5 72.8333,144.5 64.5,144.5C 64.5,117.833 64.5,91.1667 64.5,64.5C 72.8599,64.1688 81.1932,64.5021 89.5,65.5C 98.843,78.8624 108.176,92.1957 117.5,105.5 Z"/></g>
<g><path style="opacity:1" fill="#a4eac3" d="M 119.5,64.5 C 119.667,78.8372 119.5,93.1705 119,107.5C 118.283,106.956 117.783,106.289 117.5,105.5C 118.167,91.8333 118.833,78.1667 119.5,64.5 Z"/></g>
<g><path style="opacity:1" fill="#a0e9bf" d="M 91.5,103.5 C 90.8333,117.167 90.1667,130.833 89.5,144.5C 89.3334,130.163 89.5001,115.829 90,101.5C 90.7172,102.044 91.2172,102.711 91.5,103.5 Z"/></g>
</svg>
