<svg version="1.1" id="Layer_1" xmlns="http://www.w3.org/2000/svg" xmlns:xlink="http://www.w3.org/1999/xlink" x="0px" y="0px"
	 width="100%" viewBox="0 0 785 785" enable-background="new 0 0 785 785" xml:space="preserve">
<path fill="#E1F1FE" opacity="1.000000" stroke="none" 
	d="
M269.000000,786.000000 
	C179.683304,786.000000 90.366600,786.000000 1.024951,786.000000 
	C1.024951,524.398682 1.024951,262.797394 1.024951,1.098037 
	C262.552551,1.098037 524.105164,1.098037 786.000000,1.098037 
	C786.000000,144.358978 786.000000,287.718231 785.694031,431.398315 
	C776.897766,421.762024 768.346313,411.856232 759.931702,401.835632 
	C747.572205,387.117340 735.361084,372.274414 722.992432,357.563873 
	C711.152893,343.482605 699.141907,329.545563 687.299927,315.466339 
	C674.391846,300.119629 661.591858,284.682037 648.743958,269.284729 
	C637.385071,255.671844 626.121643,241.977356 614.599854,228.503830 
	C611.602478,224.998764 607.797302,222.184586 604.362549,218.688110 
	C603.564209,215.816528 602.686462,213.332230 601.981750,210.799744 
	C597.737183,195.546753 589.099731,183.900452 574.825195,176.478119 
	C563.392944,170.533722 551.280640,167.959991 538.539246,167.890259 
	C535.641479,167.874390 533.618103,167.647934 534.252075,163.842026 
	C537.455139,144.612808 540.404541,125.340614 543.707214,106.128899 
	C547.815491,82.230606 535.237366,62.018074 512.291870,56.620560 
	C501.013885,53.967628 490.573669,56.662022 481.027008,63.041534 
	C471.840088,69.180664 462.670044,75.345009 453.102386,81.759895 
	C445.121887,70.592453 437.056183,60.078678 429.824493,49.019520 
	C416.283264,28.311350 386.621735,27.477650 370.618805,36.515644 
	C361.303497,41.776672 356.422485,50.714909 350.450897,58.811810 
	C344.884705,66.359093 339.396484,73.963905 333.842194,81.586937 
	C324.222565,75.183434 315.113892,69.130699 306.016388,63.061165 
	C296.462341,56.687069 286.026886,53.972496 274.752808,56.605949 
	C252.072739,61.903667 239.681595,80.914772 243.231796,105.081825 
	C246.089127,124.532555 249.374252,143.921570 252.612045,163.314163 
	C253.151474,166.545029 252.547104,167.763092 249.014023,167.941589 
	C241.934418,168.299286 234.748489,168.550598 227.844711,169.989227 
	C211.699005,173.353729 198.201950,181.174561 189.225616,195.563629 
	C182.431778,206.454102 179.900177,218.560379 179.893829,231.159348 
	C179.823547,370.937256 179.847763,510.715179 179.862228,650.493103 
	C179.862640,654.489929 179.827225,658.504822 180.168930,662.480347 
	C181.370407,676.458679 184.997742,689.618408 195.020203,700.021790 
	C199.336945,704.502502 204.448151,708.217834 209.187378,712.613525 
	C213.048462,717.843262 216.832916,722.812988 220.809570,727.623779 
	C231.743134,740.850769 242.781570,753.991028 253.728989,767.206604 
	C258.877991,773.422485 263.913208,779.732605 269.000000,786.000000 
z"/>
<path fill="#B7D9F4" opacity="1.000000" stroke="none" 
	d="
M269.468658,786.000000 
	C263.913208,779.732605 258.877991,773.422485 253.728989,767.206604 
	C242.781570,753.991028 231.743134,740.850769 220.809570,727.623779 
	C216.832916,722.812988 213.048462,717.843262 209.534576,712.522217 
	C222.602493,717.850037 235.994431,719.996826 249.869446,719.990662 
	C343.493805,719.949097 437.118347,720.056702 530.742249,719.848328 
	C540.791992,719.825928 550.968628,718.789185 560.851318,716.955994 
	C572.305908,714.831177 581.949341,708.593445 589.843750,700.001465 
	C600.890808,687.978394 604.707886,673.136963 604.793701,657.393555 
	C605.069702,606.751404 605.039734,556.106812 604.854065,505.464142 
	C604.836182,500.591187 606.256165,498.525360 610.797180,497.038055 
	C630.507629,490.582275 640.030823,475.846527 640.720642,456.989014 
	C641.560425,434.030609 641.181763,411.014374 640.844604,388.030273 
	C640.569702,369.289612 627.065247,351.826172 609.361511,347.247894 
	C605.398987,346.223175 604.845764,344.686951 604.853516,341.281647 
	C604.935059,305.464691 604.921570,269.647430 604.875427,233.830353 
	C604.869080,228.904388 604.541809,223.978836 604.363098,219.053101 
	C607.797302,222.184586 611.602478,224.998764 614.599854,228.503830 
	C626.121643,241.977356 637.385071,255.671844 648.743958,269.284729 
	C661.591858,284.682037 674.391846,300.119629 687.299927,315.466339 
	C699.141907,329.545563 711.152893,343.482605 722.992432,357.563873 
	C735.361084,372.274414 747.572205,387.117340 759.931702,401.835632 
	C768.346313,411.856232 776.897766,421.762024 785.694031,431.859558 
	C786.000000,549.940735 786.000000,667.881470 786.000000,786.000000 
	C613.979126,786.000000 441.958221,786.000000 269.468658,786.000000 
z"/>
<path fill="#432219" opacity="1.000000" stroke="none" 
	d="
M604.362549,218.688110 
	C604.541809,223.978836 604.869080,228.904388 604.875427,233.830353 
	C604.921570,269.647430 604.935059,305.464691 604.853516,341.281647 
	C604.845764,344.686951 605.398987,346.223175 609.361511,347.247894 
	C627.065247,351.826172 640.569702,369.289612 640.844604,388.030273 
	C641.181763,411.014374 641.560425,434.030609 640.720642,456.989014 
	C640.030823,475.846527 630.507629,490.582275 610.797180,497.038055 
	C606.256165,498.525360 604.836182,500.591187 604.854065,505.464142 
	C605.039734,556.106812 605.069702,606.751404 604.793701,657.393555 
	C604.707886,673.136963 600.890808,687.978394 589.843750,700.001465 
	C581.949341,708.593445 572.305908,714.831177 560.851318,716.955994 
	C550.968628,718.789185 540.791992,719.825928 530.742249,719.848328 
	C437.118347,720.056702 343.493805,719.949097 249.869446,719.990662 
	C235.994431,719.996826 222.602493,717.850037 209.545624,712.189575 
	C204.448151,708.217834 199.336945,704.502502 195.020203,700.021790 
	C184.997742,689.618408 181.370407,676.458679 180.168930,662.480347 
	C179.827225,658.504822 179.862640,654.489929 179.862228,650.493103 
	C179.847763,510.715179 179.823547,370.937256 179.893829,231.159348 
	C179.900177,218.560379 182.431778,206.454102 189.225616,195.563629 
	C198.201950,181.174561 211.699005,173.353729 227.844711,169.989227 
	C234.748489,168.550598 241.934418,168.299286 249.014023,167.941589 
	C252.547104,167.763092 253.151474,166.545029 252.612045,163.314163 
	C249.374252,143.921570 246.089127,124.532555 243.231796,105.081825 
	C239.681595,80.914772 252.072739,61.903667 274.752808,56.605949 
	C286.026886,53.972496 296.462341,56.687069 306.016388,63.061165 
	C315.113892,69.130699 324.222565,75.183434 333.842194,81.586937 
	C339.396484,73.963905 344.884705,66.359093 350.450897,58.811810 
	C356.422485,50.714909 361.303497,41.776672 370.618805,36.515644 
	C386.621735,27.477650 416.283264,28.311350 429.824493,49.019520 
	C437.056183,60.078678 445.121887,70.592453 453.102386,81.759895 
	C462.670044,75.345009 471.840088,69.180664 481.027008,63.041534 
	C490.573669,56.662022 501.013885,53.967628 512.291870,56.620560 
	C535.237366,62.018074 547.815491,82.230606 543.707214,106.128899 
	C540.404541,125.340614 537.455139,144.612808 534.252075,163.842026 
	C533.618103,167.647934 535.641479,167.874390 538.539246,167.890259 
	C551.280640,167.959991 563.392944,170.533722 574.825195,176.478119 
	C589.099731,183.900452 597.737183,195.546753 601.981750,210.799744 
	C602.686462,213.332230 603.564209,215.816528 604.362549,218.688110 
M308.500000,199.170517 
	C286.698853,199.411423 264.896393,199.569733 243.097061,199.922165 
	C228.441086,200.159103 218.214798,206.924805 215.292130,218.589981 
	C214.016342,223.682007 213.249496,229.050781 213.255417,234.292740 
	C213.381943,346.418121 213.650894,458.543335 213.896271,570.668579 
	C213.899185,572.001465 213.919601,573.336182 213.992889,574.666687 
	C214.647842,586.556152 221.071075,595.027771 232.575577,598.158813 
	C237.946381,599.620483 243.613113,600.724487 249.149002,600.739136 
	C317.456055,600.920349 385.763794,600.952209 454.071106,600.841797 
	C484.026886,600.793335 514.023926,601.192627 543.921570,599.734009 
	C561.633301,598.869934 570.251526,590.492004 570.705200,573.249023 
	C571.590210,539.607971 570.986084,505.928711 571.138123,472.265900 
	C571.154785,468.570618 569.648193,467.809631 566.363281,467.847687 
	C554.532532,467.984711 542.697815,468.019531 530.867310,467.870667 
	C516.903442,467.694946 502.888794,467.953156 488.992462,466.830841 
	C466.399567,465.006165 450.500153,450.056274 448.099304,427.904205 
	C446.672211,414.736694 446.527069,401.289124 447.316132,388.057526 
	C448.350739,370.707886 456.530365,357.150055 472.807129,349.528717 
	C482.749939,344.873108 493.384796,344.576599 504.185486,344.730988 
	C525.179443,345.031128 546.180786,344.784607 567.178650,344.866455 
	C570.293823,344.878601 571.425293,343.594574 571.073059,340.661285 
	C571.053345,340.497040 571.071350,340.328308 571.071289,340.161652 
	C571.057617,302.831604 571.118286,265.501282 570.992065,228.171600 
	C570.944214,214.020432 563.171936,203.634537 550.720093,201.266983 
	C544.241760,200.035233 537.568054,199.269531 530.980835,199.257278 
	C457.154114,199.119980 383.326996,199.170547 308.500000,199.170517 
M424.500000,167.862961 
	C447.994354,167.862930 471.489136,167.795059 494.982697,167.930679 
	C498.828156,167.952850 500.522461,166.937408 501.170746,162.831238 
	C504.583771,141.212799 508.479767,119.669754 511.765411,98.033310 
	C512.115723,95.726463 510.220245,92.016342 508.221832,90.714218 
	C506.228455,89.415405 502.624817,89.720802 500.042236,90.445633 
	C497.623993,91.124329 495.616943,93.271507 493.431671,94.776459 
	C480.725769,103.526855 468.098969,112.395248 455.282166,120.979980 
	C448.944885,125.224716 442.616180,123.917656 438.318726,117.974625 
	C426.561188,101.714844 414.801788,85.456154 403.121826,69.140671 
	C397.702515,61.570587 389.305939,61.553009 383.896393,69.113625 
	C372.121063,85.571198 360.248169,101.958893 348.445587,118.397003 
	C346.143616,121.603111 343.005768,124.073730 339.220428,123.019440 
	C334.599762,121.732513 329.987854,119.689110 325.984039,117.045959 
	C312.972687,108.456367 300.230896,99.457787 287.408325,90.583412 
	C284.463379,88.545265 281.174927,88.065254 278.737793,90.567970 
	C276.887909,92.467651 274.887177,95.718910 275.234100,98.025818 
	C278.438843,119.337875 282.260315,140.556381 285.603882,161.848999 
	C286.349365,166.596558 288.200836,168.002289 293.031860,167.980026 
	C336.520477,167.779694 380.010437,167.862946 424.500000,167.862961 
M542.500000,435.857758 
	C558.989258,435.855896 575.486633,436.165375 591.964600,435.733521 
	C601.596069,435.481110 606.524597,432.647675 607.061096,422.610870 
	C607.592590,412.668671 608.192200,402.666718 607.674377,392.747711 
	C607.013367,380.085205 602.107422,376.096344 589.259705,375.950592 
	C587.760803,375.933594 586.261658,375.939972 584.762634,375.940369 
	C556.114685,375.947845 527.460876,375.614319 498.821198,376.106628 
	C484.257538,376.356964 480.567291,381.097382 480.864838,393.882507 
	C481.062378,402.372437 480.867432,410.870789 480.919342,419.364929 
	C480.991486,431.176025 485.710693,435.841766 497.528687,435.852295 
	C512.185791,435.865356 526.842896,435.856873 542.500000,435.857758 
M290.499878,688.941895 
	C372.262177,688.921448 454.024628,688.966736 535.786377,688.749329 
	C541.975525,688.732910 548.317688,687.405151 554.307373,685.699341 
	C562.367798,683.403748 566.826050,678.170471 567.928650,672.072571 
	C558.360413,673.324585 548.592468,675.686646 538.817932,675.714233 
	C441.195587,675.989929 343.572083,675.908386 245.949051,675.805481 
	C240.682968,675.799927 235.391876,674.873962 230.160416,674.065796 
	C225.558792,673.354919 221.024506,672.208069 216.460480,671.253723 
	C216.171066,671.595520 215.881653,671.937317 215.592239,672.279114 
	C217.593674,674.996155 219.243790,678.086792 221.662109,680.360413 
	C229.039047,687.295898 238.518280,688.579102 248.036377,688.798584 
	C261.851166,689.117310 275.678619,688.888123 290.499878,688.941895 
M428.500854,644.891663 
	C440.488831,644.891418 452.477356,644.961853 464.464722,644.876404 
	C490.914276,644.687866 517.370117,644.699219 543.809326,644.052551 
	C554.819153,643.783203 566.561646,637.477478 568.443237,627.293274 
	C567.597534,627.395325 566.811646,627.466370 566.033630,627.587524 
	C556.902832,629.010742 547.776917,631.655396 538.642700,631.683594 
	C441.205811,631.984619 343.767578,631.926392 246.330063,631.755432 
	C239.439468,631.743347 232.541000,630.136658 225.667648,629.125671 
	C222.570587,628.670105 219.526276,627.855774 216.458023,627.204224 
	C216.187637,627.588684 215.917236,627.973083 215.646851,628.357544 
	C217.450439,630.819702 218.987457,633.544128 221.105392,635.697144 
	C228.833450,643.553101 238.994644,644.779602 249.177597,644.806091 
	C308.618225,644.960754 368.059448,644.883789 428.500854,644.891663 
z"/>
<path fill="#82BEEF" opacity="1.000000" stroke="none" 
	d="
M309.000000,199.170532 
	C383.326996,199.170547 457.154114,199.119980 530.980835,199.257278 
	C537.568054,199.269531 544.241760,200.035233 550.720093,201.266983 
	C563.171936,203.634537 570.944214,214.020432 570.992065,228.171600 
	C571.118286,265.501282 571.057617,302.831604 571.071289,340.161652 
	C571.071350,340.328308 571.053345,340.497040 571.073059,340.661285 
	C571.425293,343.594574 570.293823,344.878601 567.178650,344.866455 
	C546.180786,344.784607 525.179443,345.031128 504.185486,344.730988 
	C493.384796,344.576599 482.749939,344.873108 472.807129,349.528717 
	C456.530365,357.150055 448.350739,370.707886 447.316132,388.057526 
	C446.527069,401.289124 446.672211,414.736694 448.099304,427.904205 
	C450.500153,450.056274 466.399567,465.006165 488.992462,466.830841 
	C502.888794,467.953156 516.903442,467.694946 530.867310,467.870667 
	C542.697815,468.019531 554.532532,467.984711 566.363281,467.847687 
	C569.648193,467.809631 571.154785,468.570618 571.138123,472.265900 
	C570.986084,505.928711 571.590210,539.607971 570.705200,573.249023 
	C570.251526,590.492004 561.633301,598.869934 543.921570,599.734009 
	C514.023926,601.192627 484.026886,600.793335 454.071106,600.841797 
	C385.763794,600.952209 317.456055,600.920349 249.149002,600.739136 
	C243.613113,600.724487 237.946381,599.620483 232.575577,598.158813 
	C221.071075,595.027771 214.647842,586.556152 213.992889,574.666687 
	C213.919601,573.336182 213.899185,572.001465 213.896271,570.668579 
	C213.650894,458.543335 213.381943,346.418121 213.255417,234.292740 
	C213.249496,229.050781 214.016342,223.682007 215.292130,218.589981 
	C218.214798,206.924805 228.441086,200.159103 243.097061,199.922165 
	C264.896393,199.569733 286.698853,199.411423 309.000000,199.170532 
z"/>
<path fill="#E2E2E1" opacity="1.000000" stroke="none" 
	d="
M424.000000,167.862946 
	C380.010437,167.862946 336.520477,167.779694 293.031860,167.980026 
	C288.200836,168.002289 286.349365,166.596558 285.603882,161.848999 
	C282.260315,140.556381 278.438843,119.337875 275.234100,98.025818 
	C274.887177,95.718910 276.887909,92.467651 278.737793,90.567970 
	C281.174927,88.065254 284.463379,88.545265 287.408325,90.583412 
	C300.230896,99.457787 312.972687,108.456367 325.984039,117.045959 
	C329.987854,119.689110 334.599762,121.732513 339.220428,123.019440 
	C343.005768,124.073730 346.143616,121.603111 348.445587,118.397003 
	C360.248169,101.958893 372.121063,85.571198 383.896393,69.113625 
	C389.305939,61.553009 397.702515,61.570587 403.121826,69.140671 
	C414.801788,85.456154 426.561188,101.714844 438.318726,117.974625 
	C442.616180,123.917656 448.944885,125.224716 455.282166,120.979980 
	C468.098969,112.395248 480.725769,103.526855 493.431671,94.776459 
	C495.616943,93.271507 497.623993,91.124329 500.042236,90.445633 
	C502.624817,89.720802 506.228455,89.415405 508.221832,90.714218 
	C510.220245,92.016342 512.115723,95.726463 511.765411,98.033310 
	C508.479767,119.669754 504.583771,141.212799 501.170746,162.831238 
	C500.522461,166.937408 498.828156,167.952850 494.982697,167.930679 
	C471.489136,167.795059 447.994354,167.862930 424.000000,167.862946 
z"/>
<path fill="#82BDEE" opacity="1.000000" stroke="none" 
	d="
M542.000000,435.857727 
	C526.842896,435.856873 512.185791,435.865356 497.528687,435.852295 
	C485.710693,435.841766 480.991486,431.176025 480.919342,419.364929 
	C480.867432,410.870789 481.062378,402.372437 480.864838,393.882507 
	C480.567291,381.097382 484.257538,376.356964 498.821198,376.106628 
	C527.460876,375.614319 556.114685,375.947845 584.762634,375.940369 
	C586.261658,375.939972 587.760803,375.933594 589.259705,375.950592 
	C602.107422,376.096344 607.013367,380.085205 607.674377,392.747711 
	C608.192200,402.666718 607.592590,412.668671 607.061096,422.610870 
	C606.524597,432.647675 601.596069,435.481110 591.964600,435.733521 
	C575.486633,436.165375 558.989258,435.855896 542.000000,435.857727 
M514.494446,380.086426 
	C495.404877,380.949677 483.907135,399.261261 491.477295,416.744171 
	C495.483856,425.997162 505.230591,431.372375 517.230591,430.946655 
	C525.370483,430.657928 534.787231,423.052094 538.098328,415.222046 
	C544.669739,399.682159 533.676331,381.540131 514.494446,380.086426 
z"/>
<path fill="#E1E0DE" opacity="1.000000" stroke="none" 
	d="
M290.000275,688.917236 
	C275.678619,688.888123 261.851166,689.117310 248.036377,688.798584 
	C238.518280,688.579102 229.039047,687.295898 221.662109,680.360413 
	C219.243790,678.086792 217.593674,674.996155 215.592239,672.279114 
	C215.881653,671.937317 216.171066,671.595520 216.460480,671.253723 
	C221.024506,672.208069 225.558792,673.354919 230.160416,674.065796 
	C235.391876,674.873962 240.682968,675.799927 245.949051,675.805481 
	C343.572083,675.908386 441.195587,675.989929 538.817932,675.714233 
	C548.592468,675.686646 558.360413,673.324585 567.928650,672.072571 
	C566.826050,678.170471 562.367798,683.403748 554.307373,685.699341 
	C548.317688,687.405151 541.975525,688.732910 535.786377,688.749329 
	C454.024628,688.966736 372.262177,688.921448 290.000275,688.917236 
z"/>
<path fill="#E1E0DE" opacity="1.000000" stroke="none" 
	d="
M428.000671,644.888306 
	C368.059448,644.883789 308.618225,644.960754 249.177597,644.806091 
	C238.994644,644.779602 228.833450,643.553101 221.105392,635.697144 
	C218.987457,633.544128 217.450439,630.819702 215.646851,628.357544 
	C215.917236,627.973083 216.187637,627.588684 216.458023,627.204224 
	C219.526276,627.855774 222.570587,628.670105 225.667648,629.125671 
	C232.541000,630.136658 239.439468,631.743347 246.330063,631.755432 
	C343.767578,631.926392 441.205811,631.984619 538.642700,631.683594 
	C547.776917,631.655396 556.902832,629.010742 566.033630,627.587524 
	C566.811646,627.466370 567.597534,627.395325 568.443237,627.293274 
	C566.561646,637.477478 554.819153,643.783203 543.809326,644.052551 
	C517.370117,644.699219 490.914276,644.687866 464.464722,644.876404 
	C452.477356,644.961853 440.488831,644.891418 428.000671,644.888306 
z"/>
<path fill="#E1E2E3" opacity="1.000000" stroke="none" 
	d="
M514.926392,380.087769 
	C533.676331,381.540131 544.669739,399.682159 538.098328,415.222046 
	C534.787231,423.052094 525.370483,430.657928 517.230591,430.946655 
	C505.230591,431.372375 495.483856,425.997162 491.477295,416.744171 
	C483.907135,399.261261 495.404877,380.949677 514.926392,380.087769 
z"/>
</svg>