<svg version="1.1" id="Layer_1" xmlns="http://www.w3.org/2000/svg" x="0px" y="0px"
	 width="48" height="48" viewBox="0 0 785 785" enable-background="new 0 0 785 785" xml:space="preserve">
<path fill="#E1F1FE" opacity="1.000000" stroke="none"
	d="
M786.000000,349.000000 
	C786.000000,376.020905 786.000000,403.041779 785.729126,430.292969 
	C784.722534,430.241394 783.735413,430.172821 783.288391,429.645966 
	C775.464294,420.423279 767.687988,411.159760 759.937744,401.874664 
	C745.926514,385.089020 731.972412,368.255615 717.931335,351.495056 
	C707.611511,339.176575 697.151184,326.975739 686.826416,314.661346 
	C676.391663,302.215912 666.064270,289.680542 655.657288,277.211761 
	C646.103882,265.765594 636.579834,254.293533 626.905640,242.949966 
	C619.494812,234.260406 611.869995,225.753311 604.077942,216.849899 
	C603.491943,215.610596 603.087158,214.706223 602.856995,213.759384 
	C598.539429,195.996689 588.777832,182.710464 571.812622,174.956863 
	C561.221191,170.116241 550.169250,167.999924 538.647522,167.884460 
	C535.870728,167.856628 533.591309,167.860977 534.238892,163.949524 
	C537.423584,144.714981 540.349487,125.436295 543.682129,106.227905 
	C547.855957,82.170624 535.071289,61.682526 511.907196,56.506599 
	C500.832458,54.031986 490.502014,56.678459 481.104004,62.989468 
	C471.919769,69.156960 462.728027,75.313316 453.107208,81.764473 
	C445.169067,70.658073 437.071716,60.166592 429.880341,49.087055 
	C416.314819,28.187181 386.002594,27.483456 370.270782,36.743946 
	C361.192047,42.088123 356.401367,50.818588 350.503815,58.754940 
	C344.898651,66.297760 339.422913,73.936722 333.846680,81.593239 
	C324.283264,75.224693 315.170715,69.176445 306.079254,63.096638 
	C296.529236,56.710175 286.091980,53.976189 274.818420,56.586620 
	C252.104523,61.846107 239.719223,80.771408 243.233322,105.018715 
	C246.053284,124.476448 249.330551,143.870010 252.613480,163.256729 
	C253.251160,167.022400 252.057617,167.767532 248.571060,167.944748 
	C241.490753,168.304581 234.281479,168.502808 227.405533,170.029495 
	C211.524918,173.555435 198.102402,181.249542 189.254120,195.522903 
	C182.304047,206.734207 179.874680,219.153931 179.871368,232.112915 
	C179.835846,371.070740 179.846725,510.028564 179.861282,648.986389 
	C179.861755,653.483459 179.798325,658.000610 180.175385,662.473816 
	C181.353928,676.455017 184.995209,689.615662 195.019196,700.020203 
	C199.336395,704.501282 204.447983,708.216980 209.187653,712.613037 
	C209.789642,714.108521 210.216507,715.428467 211.044632,716.409912 
	C218.828262,725.634277 226.786880,734.713135 234.464096,744.024292 
	C237.875763,748.162109 240.759598,752.735107 243.503586,757.059814 
	C233.372787,752.674866 223.164841,749.132874 213.969345,743.833923 
	C197.149017,734.141052 180.864288,723.508545 164.471313,713.086853 
	C142.868301,699.352844 124.710815,681.565857 107.120270,663.229553 
	C98.928909,654.690979 91.331116,645.544373 83.905594,636.318115 
	C70.244484,619.344177 58.046066,601.297180 48.113838,581.916199 
	C40.202358,566.478394 32.658630,550.749756 26.434212,534.579529 
	C20.599682,519.422241 16.862331,503.467651 11.924470,487.952271 
	C6.944454,472.304504 5.289997,456.080780 2.924970,439.965546 
	C2.817319,439.231995 1.665482,438.651703 0.999993,438.000000 
	C1.000000,408.645782 1.000000,379.291534 1.354483,349.775024 
	C2.123729,349.110443 2.817199,348.655579 2.911930,348.098816 
	C4.646683,337.902710 5.989539,327.628693 8.067883,317.505127 
	C10.741484,304.482056 13.707748,291.502350 17.099688,278.649567 
	C19.212830,270.642395 21.910694,262.722076 25.111998,255.083771 
	C31.578859,239.653839 37.648304,223.944717 45.592594,209.277466 
	C53.994556,193.765213 64.359550,179.313492 73.915550,164.429642 
	C87.741966,142.894455 105.434181,124.675774 123.795425,107.113342 
	C132.347076,98.933731 141.497620,91.346535 150.695099,83.883179 
	C167.499176,70.247398 185.514465,58.258633 204.640457,48.231747 
	C220.133148,40.109638 236.106567,32.693317 252.427643,26.424158 
	C267.588348,20.600716 283.539246,16.860577 299.053406,11.923970 
	C314.699738,6.945304 330.921387,5.289750 347.034851,2.924982 
	C347.768280,2.817346 348.348450,1.665496 349.000000,1.000000 
	C378.354218,1.000000 407.708466,1.000000 437.224976,1.354483 
	C437.889618,2.123732 438.344543,2.817198 438.901367,2.911939 
	C449.097473,4.646693 459.371490,5.989548 469.495056,8.067894 
	C482.518127,10.741493 495.497833,13.707755 508.350616,17.099699 
	C516.357727,19.212837 524.278137,21.910679 531.916382,25.111994 
	C547.346313,31.578869 563.055420,37.648369 577.722656,45.592678 
	C593.234863,53.994652 607.686584,64.359657 622.570435,73.915588 
	C644.105652,87.741936 662.324219,105.434296 679.886719,123.795486 
	C688.066345,132.347122 695.653503,141.497681 703.116882,150.695160 
	C716.752686,167.499176 728.741333,185.514465 738.768311,204.640396 
	C746.890442,220.133102 754.306702,236.106567 760.575806,252.427689 
	C766.399170,267.588409 770.139343,283.539307 775.075989,299.053436 
	C780.054688,314.699738 781.710083,330.921417 784.075012,347.034851 
	C784.182617,347.768280 785.334534,348.348450 786.000000,349.000000 
z"/>
<path fill="#B7D9F4" opacity="1.000000" stroke="none"
	d="
M604.340454,217.165070 
	C611.869995,225.753311 619.494812,234.260406 626.905640,242.949966 
	C636.579834,254.293533 646.103882,265.765594 655.657288,277.211761 
	C666.064270,289.680542 676.391663,302.215912 686.826416,314.661346 
	C697.151184,326.975739 707.611511,339.176575 717.931335,351.495056 
	C731.972412,368.255615 745.926514,385.089020 759.937744,401.874664 
	C767.687988,411.159760 775.464294,420.423279 783.288391,429.645966 
	C783.735413,430.172821 784.722534,430.241394 785.729126,430.761597 
	C786.000000,433.041656 786.000000,435.083344 785.641357,437.266602 
	C784.855713,438.416901 784.195190,439.390533 784.037415,440.439728 
	C782.301392,451.986694 781.414917,463.725006 778.775696,475.056915 
	C775.217468,490.334686 771.138123,505.596313 765.798096,520.326782 
	C759.364197,538.074768 752.050659,555.583984 743.869690,572.596313 
	C735.427490,590.152222 724.629028,606.400818 713.442749,622.440186 
	C698.714539,643.558105 681.640564,662.438538 662.962585,679.959167 
	C654.432617,687.960571 645.556885,695.632874 636.444336,702.965332 
	C619.306274,716.755676 600.989258,728.841919 581.515991,739.108765 
	C574.187744,742.972351 566.733704,746.604309 559.266968,750.196289 
	C552.301147,753.547241 545.432678,757.236633 538.183167,759.832581 
	C524.918945,764.582458 511.505798,768.987610 497.960846,772.858032 
	C488.701477,775.503845 479.146484,777.174988 469.663025,778.960022 
	C459.647797,780.845215 449.555634,782.319580 439.517670,784.090454 
	C438.918182,784.196228 438.501678,785.339478 438.000000,786.000000 
	C408.645782,786.000000 379.291534,786.000000 349.764557,785.641357 
	C349.227448,784.943787 348.902740,784.369141 348.492950,784.300232 
	C337.801239,782.501709 327.059052,780.973328 316.414124,778.935669 
	C306.946869,777.123535 297.551819,774.894287 288.191437,772.579895 
	C283.228577,771.352844 278.368744,769.664368 273.530212,767.988464 
	C264.001495,764.687988 254.520035,761.251038 244.889053,757.656677 
	C244.455139,757.314575 244.151199,757.186401 243.884796,757.051636 
	C243.922318,757.045166 243.882996,757.110535 243.882996,757.110535 
	C240.759598,752.735107 237.875763,748.162109 234.464096,744.024292 
	C226.786880,734.713135 218.828262,725.634277 211.044632,716.409912 
	C210.216507,715.428467 209.789642,714.108521 209.534866,712.521851 
	C222.607315,717.850525 236.005493,719.995300 249.883179,719.989441 
	C343.538605,719.950012 437.194214,720.056641 530.849182,719.848022 
	C540.902344,719.825562 551.094238,718.828552 560.965271,716.941589 
	C572.386414,714.758362 582.018433,708.527893 589.915100,699.899719 
	C600.962280,687.829346 604.706848,672.986328 604.793335,657.249146 
	C605.071777,606.590210 605.034973,555.928772 604.855713,505.269287 
	C604.839233,500.599609 606.145813,498.540161 610.514526,497.132996 
	C630.448792,490.712128 639.974915,475.952271 640.697998,457.270935 
	C641.593262,434.142181 641.211731,410.947754 640.826904,387.790894 
	C640.517151,369.151428 627.260559,352.108063 609.583740,347.332306 
	C605.551270,346.242828 604.822876,344.694702 604.834351,341.020203 
	C604.947449,304.858246 604.919067,268.695709 604.869080,232.533447 
	C604.862000,227.410416 604.524780,222.287857 604.340454,217.165070 
z"/>
<path fill="#432219" opacity="1.000000" stroke="none" 
	d="
M604.078003,216.849899 
	C604.524780,222.287857 604.862000,227.410416 604.869080,232.533447 
	C604.919067,268.695709 604.947449,304.858246 604.834351,341.020203 
	C604.822876,344.694702 605.551270,346.242828 609.583740,347.332306 
	C627.260559,352.108063 640.517151,369.151428 640.826904,387.790894 
	C641.211731,410.947754 641.593262,434.142181 640.697998,457.270935 
	C639.974915,475.952271 630.448792,490.712128 610.514526,497.132996 
	C606.145813,498.540161 604.839233,500.599609 604.855713,505.269287 
	C605.034973,555.928772 605.071777,606.590210 604.793335,657.249146 
	C604.706848,672.986328 600.962280,687.829346 589.915100,699.899719 
	C582.018433,708.527893 572.386414,714.758362 560.965271,716.941589 
	C551.094238,718.828552 540.902344,719.825562 530.849182,719.848022 
	C437.194214,720.056641 343.538605,719.950012 249.883179,719.989441 
	C236.005493,719.995300 222.607315,717.850525 209.545898,712.189209 
	C204.447983,708.216980 199.336395,704.501282 195.019196,700.020203 
	C184.995209,689.615662 181.353928,676.455017 180.175385,662.473816 
	C179.798325,658.000610 179.861755,653.483459 179.861282,648.986389 
	C179.846725,510.028564 179.835846,371.070740 179.871368,232.112915 
	C179.874680,219.153931 182.304047,206.734207 189.254120,195.522903 
	C198.102402,181.249542 211.524918,173.555435 227.405533,170.029495 
	C234.281479,168.502808 241.490753,168.304581 248.571060,167.944748 
	C252.057617,167.767532 253.251160,167.022400 252.613480,163.256729 
	C249.330551,143.870010 246.053284,124.476448 243.233322,105.018715 
	C239.719223,80.771408 252.104523,61.846107 274.818420,56.586620 
	C286.091980,53.976189 296.529236,56.710175 306.079254,63.096638 
	C315.170715,69.176445 324.283264,75.224693 333.846680,81.593239 
	C339.422913,73.936722 344.898651,66.297760 350.503815,58.754940 
	C356.401367,50.818588 361.192047,42.088123 370.270782,36.743946 
	C386.002594,27.483456 416.314819,28.187181 429.880341,49.087055 
	C437.071716,60.166592 445.169067,70.658073 453.107208,81.764473 
	C462.728027,75.313316 471.919769,69.156960 481.104004,62.989468 
	C490.502014,56.678459 500.832458,54.031986 511.907196,56.506599 
	C535.071289,61.682526 547.855957,82.170624 543.682129,106.227905 
	C540.349487,125.436295 537.423584,144.714981 534.238892,163.949524 
	C533.591309,167.860977 535.870728,167.856628 538.647522,167.884460 
	C550.169250,167.999924 561.221191,170.116241 571.812622,174.956863 
	C588.777832,182.710464 598.539429,195.996689 602.856995,213.759384 
	C603.087158,214.706223 603.491943,215.610596 604.078003,216.849899 
M354.500183,600.853210 
	C388.153748,600.853394 421.807770,600.958191 455.460785,600.822510 
	C485.083588,600.703003 514.755249,601.255920 544.308594,599.688293 
	C561.766418,598.762268 570.124451,590.722351 570.642578,573.855835 
	C571.686157,539.889954 570.978882,505.871613 571.135254,471.875549 
	C571.154236,467.745544 568.827698,467.874939 565.973450,467.880493 
	C545.808594,467.919769 525.643250,467.969727 505.478912,467.857178 
	C499.848511,467.825745 494.194427,467.505341 488.597015,466.896393 
	C466.242462,464.464630 450.394501,449.833740 448.101532,428.014709 
	C446.716888,414.838623 446.549194,401.401581 447.306854,388.166107 
	C448.313446,370.580688 456.673767,356.914551 473.146423,349.345398 
	C483.081696,344.780151 493.765808,344.545746 504.576416,344.722351 
	C525.402466,345.062622 546.238037,344.787689 567.069336,344.865723 
	C570.080261,344.877045 571.127014,343.812408 571.119141,340.770782 
	C571.020447,302.774414 571.152771,264.777008 570.926453,226.781677 
	C570.848206,213.642670 562.807434,203.588470 550.828003,201.280670 
	C544.353516,200.033417 537.676941,199.266251 531.090149,199.256989 
	C440.098083,199.129028 349.105804,199.152344 258.113586,199.211060 
	C251.981186,199.215012 245.829819,199.590668 239.720947,200.156876 
	C226.628891,201.370361 217.667343,208.102188 215.160446,218.955246 
	C213.977173,224.077896 213.243896,229.433716 213.250000,234.682800 
	C213.379990,346.308289 213.644058,457.933594 213.885483,569.558960 
	C213.888733,571.058594 213.909454,572.559143 213.969025,574.057434 
	C214.458878,586.377808 221.060608,595.147461 232.919144,598.347229 
	C237.982208,599.713440 243.319962,600.711548 248.539612,600.742493 
	C283.525360,600.950073 318.512878,600.852051 354.500183,600.853210 
M282.936676,145.473236 
	C283.946716,151.350433 285.137543,157.204239 285.901703,163.113235 
	C286.390778,166.895294 288.119049,167.943771 291.839020,167.938095 
	C359.668182,167.834991 427.497589,167.839081 495.326782,167.926712 
	C499.057495,167.931534 500.544312,166.756760 501.140656,162.982315 
	C504.479065,141.850998 507.992157,120.745644 511.685181,99.673409 
	C512.373413,95.746307 511.783661,92.811584 508.509491,90.529533 
	C505.162140,88.196503 502.119476,88.799408 498.886536,91.061348 
	C484.885681,100.857224 470.725800,110.426559 456.762085,120.274437 
	C450.209991,124.895248 441.893372,123.571457 437.697052,117.346954 
	C426.577301,100.852722 414.588867,84.944038 402.943756,68.804031 
	C397.712463,61.553562 389.196991,61.694515 383.947754,69.015701 
	C372.637604,84.790222 361.267365,100.521667 349.916077,116.266678 
	C343.899506,124.612083 338.186768,125.594276 329.686462,119.740776 
	C315.611023,110.048065 301.528748,100.365089 287.481171,90.632126 
	C284.535645,88.591286 281.646454,88.413956 278.683258,90.401939 
	C275.623016,92.455025 274.471802,95.163315 275.141876,98.964104 
	C277.820404,114.157249 280.300110,129.385452 282.936676,145.473236 
M482.823456,382.577362 
	C482.191345,385.449646 481.079071,388.311157 481.014130,391.196198 
	C480.789215,401.190674 480.839661,411.194336 480.954926,421.192535 
	C481.064026,430.654449 486.291901,435.812256 495.873688,435.829712 
	C528.039062,435.888306 560.207764,436.103485 592.367981,435.692383 
	C601.617065,435.574188 606.395386,432.952454 607.038391,422.692474 
	C607.661255,412.752502 608.163086,402.741577 607.683167,392.811829 
	C607.087463,380.486786 602.209473,376.044220 590.306702,375.997528 
	C559.475037,375.876556 528.641968,375.865662 497.811005,376.059235 
	C492.393799,376.093231 486.907837,377.140472 482.823456,382.577362 
M332.500000,675.912109 
	C304.679230,675.908630 276.858368,675.939941 249.037781,675.865112 
	C244.733994,675.853577 240.388504,675.646240 236.138382,675.016235 
	C229.537888,674.037781 223.002731,672.618652 214.762299,671.071289 
	C217.564758,674.925171 219.183167,678.034729 221.593842,680.301880 
	C229.107529,687.368042 238.754135,688.793518 248.444351,688.805847 
	C344.527954,688.928101 440.611847,688.931763 536.695251,688.749451 
	C542.551880,688.738342 548.595642,687.474243 554.210999,685.707886 
	C561.115112,683.536194 566.644104,679.246765 568.348633,671.949463 
	C558.607178,673.270813 549.042236,675.084045 539.398926,675.732239 
	C529.613464,676.389954 519.750610,675.906311 509.921692,675.906982 
	C451.114471,675.911194 392.307220,675.910889 332.500000,675.912109 
M430.500000,631.892029 
	C370.704987,631.891724 310.909943,631.914368 251.115005,631.851501 
	C245.814240,631.845947 240.468536,631.615540 235.225372,630.895142 
	C228.938660,630.031311 222.739639,628.529236 214.939423,626.996338 
	C217.399246,630.593567 218.793823,633.396301 220.871750,635.534973 
	C228.399963,643.283142 238.367859,644.781677 248.389862,644.796326 
	C344.127930,644.936035 439.866364,644.907837 535.604553,644.800903 
	C540.526855,644.795410 545.569397,644.115112 550.342773,642.906921 
	C558.729736,640.783936 565.956299,636.868835 568.705994,626.629822 
	C553.405884,631.880981 538.217285,632.044189 522.941345,631.948547 
	C492.462006,631.757690 461.980560,631.891968 430.500000,631.892029 
z"/>
<path fill="#E1F1FE" opacity="1.000000" stroke="none" 
	d="
M244.889053,757.656677 
	C244.693695,757.776428 244.368393,757.682312 243.945175,757.323181 
	C244.151199,757.186401 244.455139,757.314575 244.889053,757.656677 
z"/>
<path fill="#82BEEF" opacity="1.000000" stroke="none" 
	d="
M354.000000,600.853149 
	C318.512878,600.852051 283.525360,600.950073 248.539612,600.742493 
	C243.319962,600.711548 237.982208,599.713440 232.919144,598.347229 
	C221.060608,595.147461 214.458878,586.377808 213.969025,574.057434 
	C213.909454,572.559143 213.888733,571.058594 213.885483,569.558960 
	C213.644058,457.933594 213.379990,346.308289 213.250000,234.682800 
	C213.243896,229.433716 213.977173,224.077896 215.160446,218.955246 
	C217.667343,208.102188 226.628891,201.370361 239.720947,200.156876 
	C245.829819,199.590668 251.981186,199.215012 258.113586,199.211060 
	C349.105804,199.152344 440.098083,199.129028 531.090149,199.256989 
	C537.676941,199.266251 544.353516,200.033417 550.828003,201.280670 
	C562.807434,203.588470 570.848206,213.642670 570.926453,226.781677 
	C571.152771,264.777008 571.020447,302.774414 571.119141,340.770782 
	C571.127014,343.812408 570.080261,344.877045 567.069336,344.865723 
	C546.238037,344.787689 525.402466,345.062622 504.576416,344.722351 
	C493.765808,344.545746 483.081696,344.780151 473.146423,349.345398 
	C456.673767,356.914551 448.313446,370.580688 447.306854,388.166107 
	C446.549194,401.401581 446.716888,414.838623 448.101532,428.014709 
	C450.394501,449.833740 466.242462,464.464630 488.597015,466.896393 
	C494.194427,467.505341 499.848511,467.825745 505.478912,467.857178 
	C525.643250,467.969727 545.808594,467.919769 565.973450,467.880493 
	C568.827698,467.874939 571.154236,467.745544 571.135254,471.875549 
	C570.978882,505.871613 571.686157,539.889954 570.642578,573.855835 
	C570.124451,590.722351 561.766418,598.762268 544.308594,599.688293 
	C514.755249,601.255920 485.083588,600.703003 455.460785,600.822510 
	C421.807770,600.958191 388.153748,600.853394 354.000000,600.853149 
z"/>
<path fill="#E2E2E1" opacity="1.000000" stroke="none" 
	d="
M282.895020,145.036957 
	C280.300110,129.385452 277.820404,114.157249 275.141876,98.964104 
	C274.471802,95.163315 275.623016,92.455025 278.683258,90.401939 
	C281.646454,88.413956 284.535645,88.591286 287.481171,90.632126 
	C301.528748,100.365089 315.611023,110.048065 329.686462,119.740776 
	C338.186768,125.594276 343.899506,124.612083 349.916077,116.266678 
	C361.267365,100.521667 372.637604,84.790222 383.947754,69.015701 
	C389.196991,61.694515 397.712463,61.553562 402.943756,68.804031 
	C414.588867,84.944038 426.577301,100.852722 437.697052,117.346954 
	C441.893372,123.571457 450.209991,124.895248 456.762085,120.274437 
	C470.725800,110.426559 484.885681,100.857224 498.886536,91.061348 
	C502.119476,88.799408 505.162140,88.196503 508.509491,90.529533 
	C511.783661,92.811584 512.373413,95.746307 511.685181,99.673409 
	C507.992157,120.745644 504.479065,141.850998 501.140656,162.982315 
	C500.544312,166.756760 499.057495,167.931534 495.326782,167.926712 
	C427.497589,167.839081 359.668182,167.834991 291.839020,167.938095 
	C288.119049,167.943771 286.390778,166.895294 285.901703,163.113235 
	C285.137543,157.204239 283.946716,151.350433 282.895020,145.036957 
z"/>
<path fill="#82BDEE" opacity="1.000000" stroke="none" 
	d="
M482.961182,382.209045 
	C486.907837,377.140472 492.393799,376.093231 497.811005,376.059235 
	C528.641968,375.865662 559.475037,375.876556 590.306702,375.997528 
	C602.209473,376.044220 607.087463,380.486786 607.683167,392.811829 
	C608.163086,402.741577 607.661255,412.752502 607.038391,422.692474 
	C606.395386,432.952454 601.617065,435.574188 592.367981,435.692383 
	C560.207764,436.103485 528.039062,435.888306 495.873688,435.829712 
	C486.291901,435.812256 481.064026,430.654449 480.954926,421.192535 
	C480.839661,411.194336 480.789215,401.190674 481.014130,391.196198 
	C481.079071,388.311157 482.191345,385.449646 482.961182,382.209045 
M504.204559,382.486206 
	C493.274048,387.897675 486.990601,399.629486 489.302521,410.200806 
	C492.340576,424.092407 504.449493,431.608917 515.730896,431.114197 
	C532.567505,430.375854 544.640625,411.966309 538.204956,396.392029 
	C533.610291,385.273132 518.938904,375.807465 504.204559,382.486206 
z"/>
<path fill="#E1E0DE" opacity="1.000000" stroke="none"
	d="
M333.000000,675.912109 
	C392.307220,675.910889 451.114471,675.911194 509.921692,675.906982 
	C519.750610,675.906311 529.613464,676.389954 539.398926,675.732239 
	C549.042236,675.084045 558.607178,673.270813 568.348633,671.949463 
	C566.644104,679.246765 561.115112,683.536194 554.210999,685.707886 
	C548.595642,687.474243 542.551880,688.738342 536.695251,688.749451 
	C440.611847,688.931763 344.527954,688.928101 248.444351,688.805847 
	C238.754135,688.793518 229.107529,687.368042 221.593842,680.301880 
	C219.183167,678.034729 217.564758,674.925171 214.762299,671.071289 
	C223.002731,672.618652 229.537888,674.037781 236.138382,675.016235 
	C240.388504,675.646240 244.733994,675.853577 249.037781,675.865112 
	C276.858368,675.939941 304.679230,675.908630 333.000000,675.912109 
z"/>
<path fill="#E1E0DE" opacity="1.000000" stroke="none"
	d="
M431.000000,631.891968 
	C461.980560,631.891968 492.462006,631.757690 522.941345,631.948547 
	C538.217285,632.044189 553.405884,631.880981 568.705994,626.629822 
	C565.956299,636.868835 558.729736,640.783936 550.342773,642.906921 
	C545.569397,644.115112 540.526855,644.795410 535.604553,644.800903 
	C439.866364,644.907837 344.127930,644.936035 248.389862,644.796326 
	C238.367859,644.781677 228.399963,643.283142 220.871750,635.534973 
	C218.793823,633.396301 217.399246,630.593567 214.939423,626.996338 
	C222.739639,628.529236 228.938660,630.031311 235.225372,630.895142 
	C240.468536,631.615540 245.814240,631.845947 251.115005,631.851501 
	C310.909943,631.914368 370.704987,631.891724 431.000000,631.891968 
z"/>
<path fill="#E1E2E3" opacity="1.000000" stroke="none"
	d="
M504.562927,382.342682 
	C518.938904,375.807465 533.610291,385.273132 538.204956,396.392029 
	C544.640625,411.966309 532.567505,430.375854 515.730896,431.114197 
	C504.449493,431.608917 492.340576,424.092407 489.302521,410.200806 
	C486.990601,399.629486 493.274048,387.897675 504.562927,382.342682 
z"/>
</svg>